<svg width="196" height="56" viewBox="0 0 196 56" fill="none" xmlns="http://www.w3.org/2000/svg">
<path d="M0 28C0 12.536 12.5727 0 28.0819 0H167.918C183.427 0 196 12.536 196 28C196 43.464 183.427 56 167.918 56H28.0819C12.5727 56 0 43.464 0 28Z" fill="white" fill-opacity="1"/>
<path d="M73.0243 21.7143V13.7143H75.6262C76.5661 13.7143 77.3379 13.8781 77.9415 14.2057C78.5528 14.5333 79.0037 14.9981 79.294 15.6C79.592 16.1943 79.7411 16.9029 79.7411 17.7257C79.7411 18.541 79.592 19.2495 79.294 19.8514C79.0037 20.4457 78.5528 20.9067 77.9415 21.2343C77.3379 21.5543 76.5661 21.7143 75.6262 21.7143H73.0243ZM74.2393 20.6857H75.5804C76.3063 20.6857 76.8794 20.5676 77.2997 20.3314C77.7276 20.0952 78.0332 19.7562 78.2166 19.3143C78.4076 18.8724 78.5032 18.3429 78.5032 17.7257C78.5032 17.1086 78.4076 16.5752 78.2166 16.1257C78.0332 15.6762 77.7276 15.3333 77.2997 15.0971C76.8794 14.8533 76.3063 14.7314 75.5804 14.7314H74.2393V20.6857Z" fill="#015401" fill-opacity="1"/>
<path d="M83.6969 21.8514C83.1543 21.8514 82.6653 21.7295 82.2297 21.4857C81.8018 21.2343 81.4618 20.8876 81.2096 20.4457C80.9575 19.9962 80.8314 19.4743 80.8314 18.88C80.8314 18.2857 80.9575 17.7676 81.2096 17.3257C81.4694 16.8762 81.8171 16.5295 82.2527 16.2857C82.6882 16.0343 83.1734 15.9086 83.7083 15.9086C84.2509 15.9086 84.7361 16.0343 85.164 16.2857C85.5996 16.5295 85.9434 16.8762 86.1956 17.3257C86.4554 17.7676 86.5853 18.2857 86.5853 18.88C86.5853 19.4743 86.4554 19.9962 86.1956 20.4457C85.9434 20.8876 85.5996 21.2343 85.164 21.4857C84.7284 21.7295 84.2394 21.8514 83.6969 21.8514ZM83.6969 20.8114C83.9872 20.8114 84.2547 20.739 84.4992 20.5943C84.7514 20.4495 84.9539 20.2362 85.1067 19.9543C85.2595 19.6648 85.3359 19.3067 85.3359 18.88C85.3359 18.4533 85.2595 18.099 85.1067 17.8171C84.9615 17.5276 84.7628 17.3105 84.5107 17.1657C84.2662 17.021 83.9987 16.9486 83.7083 16.9486C83.418 16.9486 83.1467 17.021 82.8945 17.1657C82.65 17.3105 82.4513 17.5276 82.2985 17.8171C82.1457 18.099 82.0693 18.4533 82.0693 18.88C82.0693 19.3067 82.1457 19.6648 82.2985 19.9543C82.4513 20.2362 82.65 20.4495 82.8945 20.5943C83.1391 20.739 83.4065 20.8114 83.6969 20.8114Z" fill="#015401" fill-opacity="1"/>
<path d="M88.8213 21.7143L87.1478 16.0457H88.3628L89.4632 20.32L90.701 16.0457H92.0536L93.2915 20.32L94.3918 16.0457H95.6068L93.9333 21.7143H92.684L91.3773 17.2571L90.0706 21.7143H88.8213Z" fill="#015401" fill-opacity="1"/>
<path d="M96.6076 21.7143V16.0457H97.6851L97.7768 17.04C97.9525 16.6895 98.2085 16.4152 98.5447 16.2171C98.8886 16.0114 99.2821 15.9086 99.7253 15.9086C100.413 15.9086 100.952 16.1219 101.341 16.5486C101.739 16.9752 101.937 17.6114 101.937 18.4571V21.7143H100.734V18.5829C100.734 17.4857 100.283 16.9371 99.3814 16.9371C98.9306 16.9371 98.5562 17.0971 98.2582 17.4171C97.9678 17.7371 97.8226 18.1943 97.8226 18.7886V21.7143H96.6076Z" fill="#015401" fill-opacity="1"/>
<path d="M103.368 21.7143V13.4857H104.583V21.7143H103.368Z" fill="#015401" fill-opacity="1"/>
<path d="M108.781 21.8514C108.239 21.8514 107.75 21.7295 107.314 21.4857C106.886 21.2343 106.546 20.8876 106.294 20.4457C106.042 19.9962 105.916 19.4743 105.916 18.88C105.916 18.2857 106.042 17.7676 106.294 17.3257C106.554 16.8762 106.901 16.5295 107.337 16.2857C107.773 16.0343 108.258 15.9086 108.793 15.9086C109.335 15.9086 109.82 16.0343 110.248 16.2857C110.684 16.5295 111.028 16.8762 111.28 17.3257C111.54 17.7676 111.67 18.2857 111.67 18.88C111.67 19.4743 111.54 19.9962 111.28 20.4457C111.028 20.8876 110.684 21.2343 110.248 21.4857C109.813 21.7295 109.324 21.8514 108.781 21.8514ZM108.781 20.8114C109.072 20.8114 109.339 20.739 109.584 20.5943C109.836 20.4495 110.038 20.2362 110.191 19.9543C110.344 19.6648 110.42 19.3067 110.42 18.88C110.42 18.4533 110.344 18.099 110.191 17.8171C110.046 17.5276 109.847 17.3105 109.595 17.1657C109.35 17.021 109.083 16.9486 108.793 16.9486C108.502 16.9486 108.231 17.021 107.979 17.1657C107.734 17.3105 107.536 17.5276 107.383 17.8171C107.23 18.099 107.154 18.4533 107.154 18.88C107.154 19.3067 107.23 19.6648 107.383 19.9543C107.536 20.2362 107.734 20.4495 107.979 20.5943C108.223 20.739 108.491 20.8114 108.781 20.8114Z" fill="#015401" fill-opacity="1"/>
<path d="M114.909 21.8514C114.428 21.8514 114.03 21.7714 113.717 21.6114C113.404 21.4514 113.171 21.2419 113.018 20.9829C112.865 20.7162 112.789 20.4267 112.789 20.1143C112.789 19.5657 113.003 19.1314 113.431 18.8114C113.858 18.4914 114.47 18.3314 115.264 18.3314H116.755V18.2286C116.755 17.7867 116.632 17.4552 116.388 17.2343C116.151 17.0133 115.841 16.9029 115.459 16.9029C115.123 16.9029 114.829 16.9867 114.577 17.1543C114.332 17.3143 114.183 17.5543 114.13 17.8743H112.915C112.953 17.4629 113.09 17.1124 113.327 16.8229C113.572 16.5257 113.878 16.301 114.244 16.1486C114.619 15.9886 115.028 15.9086 115.471 15.9086C116.265 15.9086 116.881 16.1181 117.316 16.5371C117.752 16.9486 117.969 17.5124 117.969 18.2286V21.7143H116.915L116.812 20.7429C116.651 21.0552 116.418 21.3181 116.113 21.5314C115.807 21.7448 115.406 21.8514 114.909 21.8514ZM115.15 20.8686C115.478 20.8686 115.753 20.7924 115.975 20.64C116.204 20.48 116.38 20.2705 116.502 20.0114C116.632 19.7524 116.712 19.4667 116.743 19.1543H115.391C114.909 19.1543 114.565 19.2381 114.359 19.4057C114.16 19.5733 114.061 19.7829 114.061 20.0343C114.061 20.2933 114.156 20.499 114.347 20.6514C114.546 20.7962 114.814 20.8686 115.15 20.8686Z" fill="#015401" fill-opacity="1"/>
<path d="M121.977 21.8514C121.426 21.8514 120.941 21.7219 120.521 21.4629C120.101 21.2038 119.772 20.8495 119.535 20.4C119.298 19.9505 119.18 19.44 119.18 18.8686C119.18 18.2971 119.298 17.7905 119.535 17.3486C119.772 16.899 120.101 16.5486 120.521 16.2971C120.949 16.0381 121.438 15.9086 121.988 15.9086C122.439 15.9086 122.832 15.9962 123.169 16.1714C123.512 16.3467 123.78 16.5943 123.971 16.9143V13.4857H125.186V21.7143H124.097L123.971 20.8343C123.788 21.101 123.535 21.3371 123.214 21.5429C122.893 21.7486 122.481 21.8514 121.977 21.8514ZM122.194 20.8C122.714 20.8 123.138 20.621 123.467 20.2629C123.803 19.9048 123.971 19.4438 123.971 18.88C123.971 18.3086 123.803 17.8476 123.467 17.4971C123.138 17.139 122.714 16.96 122.194 16.96C121.675 16.96 121.247 17.139 120.911 17.4971C120.574 17.8476 120.406 18.3086 120.406 18.88C120.406 19.2533 120.483 19.5848 120.635 19.8743C120.788 20.1638 120.998 20.3924 121.266 20.56C121.541 20.72 121.85 20.8 122.194 20.8Z" fill="#015401" fill-opacity="1"/>
<path d="M132.265 21.8514C131.722 21.8514 131.233 21.7295 130.798 21.4857C130.37 21.2343 130.03 20.8876 129.778 20.4457C129.525 19.9962 129.399 19.4743 129.399 18.88C129.399 18.2857 129.525 17.7676 129.778 17.3257C130.037 16.8762 130.385 16.5295 130.821 16.2857C131.256 16.0343 131.741 15.9086 132.276 15.9086C132.819 15.9086 133.304 16.0343 133.732 16.2857C134.167 16.5295 134.511 16.8762 134.764 17.3257C135.023 17.7676 135.153 18.2857 135.153 18.88C135.153 19.4743 135.023 19.9962 134.764 20.4457C134.511 20.8876 134.167 21.2343 133.732 21.4857C133.296 21.7295 132.807 21.8514 132.265 21.8514ZM132.265 20.8114C132.555 20.8114 132.823 20.739 133.067 20.5943C133.319 20.4495 133.522 20.2362 133.675 19.9543C133.827 19.6648 133.904 19.3067 133.904 18.88C133.904 18.4533 133.827 18.099 133.675 17.8171C133.529 17.5276 133.331 17.3105 133.079 17.1657C132.834 17.021 132.567 16.9486 132.276 16.9486C131.986 16.9486 131.715 17.021 131.462 17.1657C131.218 17.3105 131.019 17.5276 130.866 17.8171C130.714 18.099 130.637 18.4533 130.637 18.88C130.637 19.3067 130.714 19.6648 130.866 19.9543C131.019 20.2362 131.218 20.4495 131.462 20.5943C131.707 20.739 131.974 20.8114 132.265 20.8114Z" fill="#015401" fill-opacity="1"/>
<path d="M136.467 21.7143V16.0457H137.545L137.636 17.04C137.812 16.6895 138.068 16.4152 138.404 16.2171C138.748 16.0114 139.142 15.9086 139.585 15.9086C140.273 15.9086 140.811 16.1219 141.201 16.5486C141.598 16.9752 141.797 17.6114 141.797 18.4571V21.7143H140.593V18.5829C140.593 17.4857 140.143 16.9371 139.241 16.9371C138.79 16.9371 138.416 17.0971 138.118 17.4171C137.827 17.7371 137.682 18.1943 137.682 18.7886V21.7143H136.467Z" fill="#015401" fill-opacity="1"/>
<path d="M148.5 21.7143C147.942 21.7143 147.499 21.581 147.17 21.3143C146.842 21.04 146.677 20.5562 146.677 19.8629V17.0629H145.703V16.0457H146.677L146.826 14.6057H147.892V16.0457H149.497V17.0629H147.892V19.8629C147.892 20.1752 147.957 20.3924 148.087 20.5143C148.225 20.6286 148.458 20.6857 148.786 20.6857H149.44V21.7143H148.5Z" fill="#015401" fill-opacity="1"/>
<path d="M150.75 21.7143V13.4857H151.965V16.96C152.156 16.6324 152.419 16.3771 152.756 16.1943C153.1 16.0038 153.478 15.9086 153.89 15.9086C154.571 15.9086 155.105 16.1219 155.495 16.5486C155.885 16.9752 156.08 17.6114 156.08 18.4571V21.7143H154.876V18.5829C154.876 17.4857 154.437 16.9371 153.558 16.9371C153.1 16.9371 152.717 17.0971 152.412 17.4171C152.114 17.7371 151.965 18.1943 151.965 18.7886V21.7143H150.75Z" fill="#015401" fill-opacity="1"/>
<path d="M160.17 21.8514C159.612 21.8514 159.115 21.7295 158.68 21.4857C158.252 21.2343 157.916 20.8876 157.671 20.4457C157.427 20.0038 157.304 19.4895 157.304 18.9029C157.304 18.3086 157.423 17.7867 157.66 17.3371C157.904 16.8876 158.24 16.5371 158.668 16.2857C159.104 16.0343 159.608 15.9086 160.181 15.9086C160.739 15.9086 161.224 16.0343 161.637 16.2857C162.05 16.5295 162.371 16.8571 162.6 17.2686C162.829 17.68 162.944 18.1333 162.944 18.6286C162.944 18.7048 162.94 18.7886 162.932 18.88C162.932 18.9638 162.928 19.059 162.921 19.1657H158.496C158.535 19.7143 158.714 20.1333 159.035 20.4229C159.364 20.7048 159.742 20.8457 160.17 20.8457C160.514 20.8457 160.8 20.7695 161.029 20.6171C161.266 20.4571 161.442 20.2438 161.557 19.9771H162.772C162.619 20.5105 162.313 20.9562 161.855 21.3143C161.404 21.6724 160.842 21.8514 160.17 21.8514ZM160.17 16.9029C159.765 16.9029 159.406 17.0248 159.092 17.2686C158.779 17.5048 158.588 17.8629 158.519 18.3429H161.729C161.706 17.901 161.549 17.5505 161.259 17.2914C160.968 17.0324 160.605 16.9029 160.17 16.9029Z" fill="#015401" fill-opacity="1"/>
<path d="M72.5796 42.2857L76.6876 31.0857H78.9983L83.1063 42.2857H80.9239L80.0253 39.6937H75.6445L74.7299 42.2857H72.5796ZM76.2062 38.0937H79.4637L77.8269 33.4377L76.2062 38.0937Z" fill="#015401" fill-opacity="1"/>
<path d="M84.5051 45.8057V34.3497H86.3344L86.5591 35.4857C86.8159 35.1337 87.1528 34.8244 87.5701 34.5577C87.998 34.291 88.5489 34.1577 89.2229 34.1577C89.9717 34.1577 90.6403 34.3391 91.2287 34.7017C91.8171 35.0644 92.2825 35.5604 92.6248 36.1897C92.9671 36.819 93.1383 37.5337 93.1383 38.3337C93.1383 39.1337 92.9671 39.8484 92.6248 40.4777C92.2825 41.0964 91.8171 41.5871 91.2287 41.9497C90.6403 42.3017 89.9717 42.4777 89.2229 42.4777C88.6238 42.4777 88.0996 42.3657 87.6503 42.1417C87.201 41.9177 86.8373 41.6031 86.5591 41.1977V45.8057H84.5051ZM88.7896 40.6857C89.4422 40.6857 89.9824 40.4671 90.4103 40.0297C90.8383 39.5924 91.0522 39.0271 91.0522 38.3337C91.0522 37.6404 90.8383 37.0697 90.4103 36.6217C89.9824 36.1737 89.4422 35.9497 88.7896 35.9497C88.1264 35.9497 87.5808 36.1737 87.1528 36.6217C86.7356 37.059 86.527 37.6244 86.527 38.3177C86.527 39.011 86.7356 39.5817 87.1528 40.0297C87.5808 40.4671 88.1264 40.6857 88.7896 40.6857Z" fill="#015401" fill-opacity="1"/>
<path d="M94.9731 45.8057V34.3497H96.8025L97.0271 35.4857C97.2839 35.1337 97.6209 34.8244 98.0381 34.5577C98.466 34.291 99.0169 34.1577 99.6909 34.1577C100.44 34.1577 101.108 34.3391 101.697 34.7017C102.285 35.0644 102.75 35.5604 103.093 36.1897C103.435 36.819 103.606 37.5337 103.606 38.3337C103.606 39.1337 103.435 39.8484 103.093 40.4777C102.75 41.0964 102.285 41.5871 101.697 41.9497C101.108 42.3017 100.44 42.4777 99.6909 42.4777C99.0918 42.4777 98.5676 42.3657 98.1183 42.1417C97.669 41.9177 97.3053 41.6031 97.0271 41.1977V45.8057H94.9731ZM99.2576 40.6857C99.9102 40.6857 100.45 40.4671 100.878 40.0297C101.306 39.5924 101.52 39.0271 101.52 38.3337C101.52 37.6404 101.306 37.0697 100.878 36.6217C100.45 36.1737 99.9102 35.9497 99.2576 35.9497C98.5944 35.9497 98.0488 36.1737 97.6209 36.6217C97.2036 37.059 96.995 37.6244 96.995 38.3177C96.995 39.011 97.2036 39.5817 97.6209 40.0297C98.0488 40.4671 98.5944 40.6857 99.2576 40.6857Z" fill="#015401" fill-opacity="1"/>
<path d="M113.148 42.4777C112.324 42.4777 111.597 42.3391 110.966 42.0617C110.335 41.7737 109.837 41.3684 109.473 40.8457C109.11 40.3124 108.922 39.667 108.912 38.9097H111.078C111.099 39.4324 111.287 39.875 111.64 40.2377C112.003 40.5897 112.501 40.7657 113.132 40.7657C113.678 40.7657 114.111 40.6377 114.432 40.3817C114.753 40.115 114.913 39.7631 114.913 39.3257C114.913 38.8671 114.769 38.5097 114.48 38.2537C114.202 37.9977 113.827 37.7897 113.357 37.6297C112.886 37.4697 112.383 37.299 111.848 37.1177C110.982 36.819 110.319 36.435 109.859 35.9657C109.409 35.4964 109.185 34.8724 109.185 34.0937C109.174 33.4324 109.329 32.8671 109.65 32.3977C109.982 31.9177 110.431 31.5497 110.998 31.2937C111.565 31.0271 112.217 30.8937 112.956 30.8937C113.704 30.8937 114.362 31.0271 114.929 31.2937C115.507 31.5604 115.956 31.9337 116.277 32.4137C116.609 32.8937 116.785 33.4644 116.807 34.1257H114.608C114.598 33.731 114.443 33.3844 114.143 33.0857C113.854 32.7764 113.448 32.6217 112.923 32.6217C112.474 32.611 112.094 32.723 111.784 32.9577C111.485 33.1817 111.335 33.5124 111.335 33.9497C111.335 34.323 111.453 34.6217 111.688 34.8457C111.923 35.059 112.244 35.2404 112.651 35.3897C113.057 35.539 113.523 35.699 114.047 35.8697C114.603 36.0617 115.111 36.2857 115.571 36.5417C116.031 36.7977 116.4 37.139 116.678 37.5657C116.957 37.9817 117.096 38.5204 117.096 39.1817C117.096 39.7684 116.946 40.3124 116.646 40.8137C116.347 41.315 115.903 41.7204 115.314 42.0297C114.726 42.3284 114.004 42.4777 113.148 42.4777Z" fill="#015401" fill-opacity="1"/>
<path d="M122.386 42.2857C121.552 42.2857 120.883 42.083 120.38 41.6777C119.877 41.2724 119.626 40.5524 119.626 39.5177V36.0617H118.262V34.3497H119.626L119.867 32.2217H121.68V34.3497H123.83V36.0617H121.68V39.5337C121.68 39.9177 121.76 40.1844 121.921 40.3337C122.092 40.4724 122.381 40.5417 122.787 40.5417H123.782V42.2857H122.386Z" fill="#015401" fill-opacity="1"/>
<path d="M129.209 42.4777C128.439 42.4777 127.743 42.3017 127.123 41.9497C126.513 41.5977 126.026 41.1124 125.663 40.4937C125.31 39.8644 125.133 39.139 125.133 38.3177C125.133 37.4964 125.315 36.7764 125.679 36.1577C126.043 35.5284 126.529 35.0377 127.139 34.6857C127.76 34.3337 128.455 34.1577 129.225 34.1577C129.985 34.1577 130.669 34.3337 131.279 34.6857C131.9 35.0377 132.386 35.5284 132.739 36.1577C133.103 36.7764 133.285 37.4964 133.285 38.3177C133.285 39.139 133.103 39.8644 132.739 40.4937C132.386 41.1124 131.9 41.5977 131.279 41.9497C130.659 42.3017 129.969 42.4777 129.209 42.4777ZM129.209 40.7017C129.744 40.7017 130.209 40.5044 130.605 40.1097C131.001 39.7044 131.199 39.107 131.199 38.3177C131.199 37.5284 131.001 36.9364 130.605 36.5417C130.209 36.1364 129.749 35.9337 129.225 35.9337C128.68 35.9337 128.209 36.1364 127.813 36.5417C127.428 36.9364 127.235 37.5284 127.235 38.3177C127.235 39.107 127.428 39.7044 127.813 40.1097C128.209 40.5044 128.674 40.7017 129.209 40.7017Z" fill="#015401" fill-opacity="1"/>
<path d="M135.121 42.2857V34.3497H136.951L137.143 35.8377C137.432 35.3257 137.823 34.9204 138.315 34.6217C138.818 34.3124 139.406 34.1577 140.08 34.1577V36.3177H139.502C139.053 36.3177 138.652 36.387 138.299 36.5257C137.946 36.6644 137.668 36.9044 137.464 37.2457C137.272 37.5871 137.175 38.0617 137.175 38.6697V42.2857H135.121Z" fill="#015401" fill-opacity="1"/>
<path d="M145.21 42.4777C144.408 42.4777 143.696 42.3071 143.076 41.9657C142.455 41.6244 141.969 41.1444 141.616 40.5257C141.262 39.907 141.086 39.1924 141.086 38.3817C141.086 37.5604 141.257 36.8297 141.599 36.1897C141.952 35.5497 142.434 35.0537 143.044 34.7017C143.664 34.3391 144.392 34.1577 145.226 34.1577C146.007 34.1577 146.697 34.3284 147.296 34.6697C147.895 35.0111 148.361 35.4804 148.692 36.0777C149.034 36.6644 149.206 37.3204 149.206 38.0457C149.206 38.1631 149.2 38.2857 149.19 38.4137C149.19 38.5417 149.184 38.675 149.174 38.8137H143.124C143.167 39.4324 143.381 39.9177 143.766 40.2697C144.162 40.6217 144.638 40.7977 145.194 40.7977C145.611 40.7977 145.959 40.7071 146.237 40.5257C146.526 40.3337 146.74 40.0884 146.879 39.7897H148.965C148.815 40.291 148.564 40.7497 148.211 41.1657C147.868 41.571 147.44 41.891 146.927 42.1257C146.424 42.3604 145.852 42.4777 145.21 42.4777ZM145.226 35.8217C144.723 35.8217 144.279 35.9657 143.894 36.2537C143.509 36.531 143.263 36.9577 143.156 37.5337H147.12C147.087 37.011 146.895 36.5951 146.542 36.2857C146.189 35.9764 145.75 35.8217 145.226 35.8217Z" fill="#015401" fill-opacity="1"/>
<path d="M48.7684 42.6686C46.7558 44.6138 44.5585 44.3067 42.4433 43.3852C40.2048 42.4433 38.1512 42.4024 35.7896 43.3852C32.8324 44.6548 31.2717 44.2862 29.5055 42.6686C19.4839 32.369 20.9625 16.6843 32.3395 16.111C35.1119 16.2543 37.0423 17.6262 38.6646 17.749C41.0879 17.2576 43.4085 15.8448 45.996 16.029C49.097 16.2748 51.4381 17.5033 52.9783 19.7148C46.571 23.5438 48.0907 31.9595 53.964 34.3143C52.7934 37.3857 51.2738 40.4367 48.7478 42.689L48.7684 42.6686ZM38.4593 15.9881C38.1512 11.4219 41.8683 7.65429 46.1398 7.28571C46.7353 12.5686 41.3343 16.5 38.4593 15.9881Z" fill="#015401" fill-opacity="1"/>
</svg>
