<svg width="137" height="196" viewBox="0 0 137 196" fill="none" xmlns="http://www.w3.org/2000/svg">
<path fill-rule="evenodd" clip-rule="evenodd" d="M84.9613 27.1805C84.9444 27.1606 84.9218 27.2403 84.9021 27.2688C84.9556 27.0125 84.9021 27.1919 84.9951 26.9498C85.0092 26.9128 85.06 26.796 85.0769 26.759C85.1644 26.5853 85.2292 26.5084 85.3364 26.3745L84.9613 27.1833V27.1805ZM3.46267 12.6732C3.88009 12.9865 4.5852 13.2599 5.1239 13.5675C6.42975 14.3136 8.56762 15.9626 9.6986 16.9935C15.4889 22.2707 20.261 30.7375 24.6778 37.5241C29.4358 44.829 34.0331 51.0489 41.1321 55.335C42.452 56.1296 46.6178 58.0035 48.3749 58.1117C48.3636 54.1816 49.3254 49.5879 50.5128 45.9312C51.4576 43.0263 52.6817 40.4176 54.0129 37.7548C54.3824 37.0172 55.2595 35.8353 55.3159 35.035C53.8296 33.52 45.3345 27.5422 43.7325 26.5796C40.4185 24.5861 38.1114 22.94 34.6451 21.1458L31.4919 19.4769C32.5975 19.6221 37.0989 21.4932 38.2186 22.0258C44.2374 24.8822 48.2395 27.0751 53.7534 30.7603C54.6137 31.3356 55.9449 32.4349 56.7374 32.7994C57.2536 32.3523 58.8527 29.7265 59.6086 28.6899C62.7223 24.4152 65.9856 20.804 69.8608 17.0248C68.9103 15.7433 65.0182 13.4336 63.5995 12.6134C61.4757 11.3888 59.0107 10.3835 56.4921 9.44369C43.5887 4.64495 26.2657 4.63925 12.6685 8.8143C10.7252 9.40951 4.56545 11.5597 3.45703 12.6704L3.46267 12.6732ZM84.9021 27.2688C84.809 28.0206 84.3464 28.8038 84.0475 29.5671L81.7376 36.3565C76.7652 51.2739 74.3424 70.2153 74.5286 86.2092C74.5709 89.6694 74.2804 89.2081 77.7523 87.8923C122.041 71.084 99.4187 35.4993 101.26 9.59463C101.698 3.43743 103.043 2.02487 103.401 0C87.9002 4.46553 75.7244 13.24 65.7881 24.5149L61.5603 29.7607L57.9333 35.2287C54.326 40.9616 49.771 51.3678 50.6764 61.3185C51.3984 69.2556 55.6121 76.7655 61.5152 81.2738C62.917 82.3418 65.3876 84.2954 66.905 84.9476C67.1137 85.9301 66.6145 90.3416 66.5327 91.7769C66.4368 93.4344 66.135 96.9658 66.3466 98.5122L70.2077 98.0224C70.4305 97.1538 70.3008 94.303 70.3177 93.1297C70.5039 81.2937 71.0877 71.9867 73.2566 60.1964C74.4947 53.4497 75.857 49.1721 77.8087 42.9722C78.542 40.6369 83.5962 28.2769 84.9021 27.2688Z" fill="#00C700"/>
<path fill-rule="evenodd" clip-rule="evenodd" d="M127.317 117.523L72.5879 153.789V195.296L127.893 158.461L127.317 117.523Z" fill="#00C700"/>
<path fill-rule="evenodd" clip-rule="evenodd" d="M135.954 57.0333L72.5879 100.243V141.719L136.534 97.9411L135.954 57.0333Z" fill="#00C700"/>
<path fill-rule="evenodd" clip-rule="evenodd" d="M9.22286 117.523L63.9467 153.789V195.296L8.6416 158.461L9.22286 117.523Z" fill="#00C700"/>
<path fill-rule="evenodd" clip-rule="evenodd" d="M0.574681 57.0333L63.9465 100.243V141.719L0 97.9411L0.574681 57.0333Z" fill="#00C700"/>
</svg>
