<svg width="25" height="25" viewBox="0 0 25 25" fill="none" xmlns="http://www.w3.org/2000/svg">
<path d="M6.12322 4.16732H18.3698C20.6244 4.16732 22.4521 6.0328 22.4521 8.33398V13.5423C22.4521 15.8435 20.6244 17.709 18.3698 17.709H10.2054C7.95089 17.709 6.12322 15.8435 6.12322 13.5423V4.16732ZM6.12322 4.16732C6.12322 3.01672 5.20939 2.08398 4.08212 2.08398H2.04102" stroke="fill-opacity="#ffffff"" stroke-width="1.4" stroke-linecap="round" stroke-linejoin="round"/>
<path d="M11.2257 21.3535C11.2257 22.2165 10.5403 22.916 9.69489 22.916C8.84944 22.916 8.16406 22.2165 8.16406 21.3535C8.16406 20.4906 8.84944 19.791 9.69489 19.791C10.5403 19.791 11.2257 20.4906 11.2257 21.3535Z" stroke="fill-opacity="#ffffff"" stroke-width="1.4"/>
<path d="M20.4113 21.3535C20.4113 22.2165 19.7259 22.916 18.8804 22.916C18.035 22.916 17.3496 22.2165 17.3496 21.3535C17.3496 20.4906 18.035 19.791 18.8804 19.791C19.7259 19.791 20.4113 20.4906 20.4113 21.3535Z" stroke="fill-opacity="#ffffff"" stroke-width="1.4"/>
<path d="M14.2881 8.33398L14.2881 13.5423" stroke="fill-opacity="#ffffff"" stroke-width="1.4" stroke-linecap="round" stroke-linejoin="round"/>
<path d="M16.8391 10.9375L11.7363 10.9375" stroke="fill-opacity="#ffffff"" stroke-width="1.4" stroke-linecap="round" stroke-linejoin="round"/>
</svg>