<svg width="38" height="38" viewBox="0 0 38 38" fill="none" xmlns="http://www.w3.org/2000/svg">
<path d="M8.18182 36H29.8182M12.4426 9.35173L15.7221 12.6312M15.7221 12.6312C16.5916 11.7617 17.7704 11.2727 19 11.2727M15.7221 12.6312C14.8526 13.5007 14.3636 14.6795 14.3636 15.9091M14.3636 15.9091H9.72727M14.3636 15.9091C14.3636 17.1387 14.8526 18.3175 15.7221 19.187M15.7221 19.187L12.4426 22.4665M15.7221 19.187C16.5916 20.0565 17.7704 20.5455 19 20.5455M19 20.5455V25.1818M19 20.5455C20.2296 20.5455 21.4084 20.0565 22.2779 19.187M22.2779 19.187L25.5574 22.4665M22.2779 19.187C23.1474 18.3175 23.6364 17.1387 23.6364 15.9091M28.2727 15.9091H23.6364M23.6364 15.9091C23.6364 14.6795 23.1474 13.5007 22.2779 12.6312M25.5574 9.35173L22.2779 12.6312M22.2779 12.6312C21.4084 11.7617 20.2296 11.2727 19 11.2727M19 11.2727V6.63636M2 29.8182H36V2H2V29.8182ZM12.8182 36H25.1818V29.8182H12.8182V36Z" stroke="#00C700" stroke-width="2.5"/>
</svg>
