<svg width="27" height="28" viewBox="0 0 27 28" fill="none" xmlns="http://www.w3.org/2000/svg">
<path fillRule="evenodd" clipRule="evenodd" d="M6.02236 2.71429C6.02236 4.21336 4.80713 5.42859 3.30807 5.42859C1.809 5.42859 0.593772 4.21336 0.593772 2.71429C0.593772 1.21523 1.809 0 3.30807 0C4.80713 0 6.02236 1.21523 6.02236 2.71429ZM0.59375 8.82162H6.02234V27.1431H0.59375V8.82162ZM10.0939 8.82162H15.5224V9.96354C16.3714 9.66347 17.285 9.50019 18.2367 9.50019C22.7339 9.50019 26.3796 13.1459 26.3796 17.6431V27.1431H20.951V17.6431C20.951 16.144 19.7358 14.9288 18.2367 14.9288C16.7377 14.9288 15.5224 16.144 15.5224 17.6431V27.1431H10.0939V17.6431V8.82162Z" fill="#141416" fillOpacity="0.7"/>
</svg>
