<svg width="262" height="78" viewBox="0 0 262 78" fill="none" xmlns="http://www.w3.org/2000/svg">
<path d="M60 42.2984V13.3779H78.9208V17.454H64.6034V26.1495H77.3603V30.2255H64.6034V42.2984H60Z" fill="#141416"/>
<path d="M86.9024 42.7642C85.472 42.7642 84.2106 42.5183 83.1182 42.0266C82.0519 41.509 81.2197 40.8103 80.6215 39.9304C80.0233 39.0246 79.7242 37.9635 79.7242 36.7472C79.7242 35.6085 79.9713 34.5862 80.4654 33.6805C80.9856 32.7747 81.7788 32.0112 82.8451 31.3901C83.9115 30.769 85.2509 30.3291 86.8634 30.0703L94.1976 28.8669V32.3218L87.7216 33.4475C86.5513 33.6546 85.693 34.0298 85.1469 34.5733C84.6007 35.0909 84.3276 35.7638 84.3276 36.5919C84.3276 37.3942 84.6267 38.0541 85.2249 38.5717C85.8491 39.0634 86.6423 39.3093 87.6046 39.3093C88.801 39.3093 89.8413 39.0505 90.7256 38.5329C91.6358 38.0153 92.3381 37.3295 92.8322 36.4755C93.3264 35.5956 93.5734 34.6251 93.5734 33.564V28.1681C93.5734 27.1329 93.1833 26.2918 92.4031 25.6449C91.6488 24.972 90.6345 24.6356 89.3601 24.6356C88.1898 24.6356 87.1625 24.9461 86.2782 25.5672C85.4199 26.1624 84.7827 26.9388 84.3666 27.8964L80.6995 26.0719C81.0896 25.0367 81.7268 24.1309 82.6111 23.3545C83.4953 22.5522 84.5227 21.9311 85.693 21.4912C86.8894 21.0512 88.1508 20.8313 89.4772 20.8313C91.1417 20.8313 92.6111 21.1418 93.8855 21.7629C95.1859 22.384 96.1872 23.251 96.8894 24.3638C97.6177 25.4508 97.9818 26.7189 97.9818 28.1681V42.2984H93.7685V38.4941L94.6658 38.6105C94.1716 39.4645 93.5344 40.2021 92.7542 40.8232C92 41.4443 91.1287 41.9231 90.1404 42.2595C89.1781 42.596 88.0988 42.7642 86.9024 42.7642Z" fill="#141416"/>
<path d="M102.356 42.2984V21.2971H106.569V25.5284L106.179 24.9073C106.647 23.5357 107.402 22.5522 108.442 21.957C109.482 21.3359 110.731 21.0254 112.187 21.0254H113.474V25.0237H111.641C110.184 25.0237 109.001 25.4766 108.091 26.3824C107.206 27.2623 106.764 28.5304 106.764 30.1867V42.2984H102.356Z" fill="#141416"/>
<path d="M115.71 42.2984V21.2971H119.923V25.839L119.377 25.1402C119.819 23.7168 120.625 22.6428 121.796 21.9182C122.966 21.1936 124.306 20.8313 125.814 20.8313C127.505 20.8313 129 21.2841 130.3 22.1899C131.627 23.0698 132.511 24.2474 132.953 25.7225L131.705 25.839C132.329 24.1568 133.278 22.9016 134.553 22.0735C135.853 21.2453 137.336 20.8313 139 20.8313C140.457 20.8313 141.77 21.1677 142.94 21.8406C144.137 22.5134 145.086 23.4451 145.788 24.6356C146.49 25.826 146.841 27.1847 146.841 28.7116V42.2984H142.433V29.915C142.433 28.8539 142.238 27.9611 141.848 27.2365C141.484 26.4859 140.964 25.9166 140.287 25.5284C139.637 25.1143 138.87 24.9073 137.986 24.9073C137.102 24.9073 136.321 25.1143 135.645 25.5284C134.969 25.9166 134.436 26.4859 134.046 27.2365C133.655 27.987 133.46 28.8798 133.46 29.915V42.2984H129.091V29.915C129.091 28.8539 128.896 27.9611 128.506 27.2365C128.142 26.4859 127.622 25.9166 126.945 25.5284C126.295 25.1143 125.515 24.9073 124.605 24.9073C123.72 24.9073 122.94 25.1143 122.264 25.5284C121.588 25.9166 121.055 26.4859 120.664 27.2365C120.3 27.987 120.118 28.8798 120.118 29.915V42.2984H115.71Z" fill="#141416"/>
<path d="M158.582 42.7642C156.423 42.7642 154.525 42.2337 152.886 41.1726C151.274 40.1115 150.142 38.6882 149.492 36.9025L152.886 35.3109C153.458 36.5013 154.239 37.4459 155.227 38.1447C156.241 38.8434 157.36 39.1928 158.582 39.1928C159.622 39.1928 160.468 38.9599 161.118 38.4941C161.768 38.0282 162.093 37.3942 162.093 36.5919C162.093 36.0743 161.95 35.6602 161.664 35.3497C161.378 35.0133 161.014 34.7415 160.572 34.5345C160.155 34.3275 159.726 34.1722 159.284 34.0687L155.968 33.137C154.148 32.6194 152.782 31.843 151.872 30.8078C150.988 29.7468 150.545 28.5175 150.545 27.12C150.545 25.8519 150.871 24.752 151.521 23.8203C152.171 22.8628 153.068 22.1252 154.213 21.6076C155.357 21.0901 156.644 20.8313 158.075 20.8313C159.999 20.8313 161.716 21.31 163.224 22.2676C164.733 23.1992 165.799 24.5062 166.423 26.1883L163.029 27.7799C162.613 26.7706 161.95 25.9684 161.04 25.3731C160.155 24.7779 159.154 24.4803 158.036 24.4803C157.073 24.4803 156.306 24.7132 155.734 25.179C155.162 25.619 154.876 26.2013 154.876 26.9259C154.876 27.4176 155.006 27.8317 155.266 28.1681C155.526 28.4787 155.864 28.7375 156.28 28.9445C156.696 29.1257 157.126 29.2809 157.568 29.4103L161.001 30.4196C162.743 30.9113 164.083 31.6877 165.019 32.7488C165.955 33.784 166.423 35.0262 166.423 36.4755C166.423 37.7177 166.085 38.8176 165.409 39.7751C164.759 40.7068 163.849 41.4443 162.678 41.9878C161.508 42.5054 160.142 42.7642 158.582 42.7642Z" fill="#141416"/>
<path d="M179.091 42.5313C176.881 42.5313 175.164 41.9102 173.942 40.6679C172.719 39.4257 172.108 37.6789 172.108 35.4273V25.2567H168.402V21.2971H168.987C169.975 21.2971 170.743 21.0124 171.289 20.4431C171.835 19.8737 172.108 19.0973 172.108 18.1139V16.4835H176.516V21.2971H181.315V25.2567H176.516V35.2332C176.516 35.9579 176.634 36.579 176.868 37.0966C177.102 37.5883 177.479 37.9765 177.999 38.2611C178.519 38.5199 179.195 38.6493 180.028 38.6493C180.236 38.6493 180.47 38.6364 180.73 38.6105C180.99 38.5846 181.237 38.5588 181.471 38.5329V42.2984C181.107 42.3501 180.704 42.4019 180.262 42.4536C179.819 42.5054 179.429 42.5313 179.091 42.5313Z" fill="#141416"/>
<path d="M191.122 42.7642C189.692 42.7642 188.43 42.5183 187.338 42.0266C186.272 41.509 185.439 40.8103 184.841 39.9304C184.243 39.0246 183.944 37.9635 183.944 36.7472C183.944 35.6085 184.191 34.5862 184.685 33.6805C185.205 32.7747 185.999 32.0112 187.065 31.3901C188.131 30.769 189.471 30.3291 191.083 30.0703L198.417 28.8669V32.3218L191.941 33.4475C190.771 33.6546 189.913 34.0298 189.367 34.5733C188.82 35.0909 188.547 35.7638 188.547 36.5919C188.547 37.3942 188.846 38.0541 189.445 38.5717C190.069 39.0634 190.862 39.3093 191.824 39.3093C193.021 39.3093 194.061 39.0505 194.945 38.5329C195.856 38.0153 196.558 37.3295 197.052 36.4755C197.546 35.5956 197.793 34.6251 197.793 33.564V28.1681C197.793 27.1329 197.403 26.2918 196.623 25.6449C195.869 24.972 194.854 24.6356 193.58 24.6356C192.41 24.6356 191.382 24.9461 190.498 25.5672C189.64 26.1624 189.003 26.9388 188.586 27.8964L184.919 26.0719C185.309 25.0367 185.947 24.1309 186.831 23.3545C187.715 22.5522 188.742 21.9311 189.913 21.4912C191.109 21.0512 192.371 20.8313 193.697 20.8313C195.361 20.8313 196.831 21.1418 198.105 21.7629C199.406 22.384 200.407 23.251 201.109 24.3638C201.837 25.4508 202.202 26.7189 202.202 28.1681V42.2984H197.988V38.4941L198.886 38.6105C198.391 39.4645 197.754 40.2021 196.974 40.8232C196.22 41.4443 195.348 41.9231 194.36 42.2595C193.398 42.596 192.319 42.7642 191.122 42.7642Z" fill="#141416"/>
<path d="M206.576 42.2984V21.2971H210.789V25.5284L210.399 24.9073C210.867 23.5357 211.621 22.5522 212.662 21.957C213.702 21.3359 214.95 21.0254 216.407 21.0254H217.694V25.0237H215.861C214.404 25.0237 213.221 25.4766 212.311 26.3824C211.426 27.2623 210.984 28.5304 210.984 30.1867V42.2984H206.576Z" fill="#141416"/>
<path d="M229.956 42.7642C227.849 42.7642 225.977 42.2854 224.338 41.3279C222.726 40.3444 221.438 39.0246 220.476 37.3683C219.54 35.712 219.071 33.8357 219.071 31.7395C219.071 29.6691 219.54 27.8058 220.476 26.1495C221.412 24.4932 222.7 23.1992 224.338 22.2676C225.977 21.31 227.849 20.8313 229.956 20.8313C231.386 20.8313 232.726 21.0901 233.974 21.6076C235.222 22.0994 236.302 22.7852 237.212 23.6651C238.148 24.545 238.838 25.5672 239.28 26.7318L235.417 28.5175C234.975 27.4305 234.26 26.5636 233.272 25.9166C232.31 25.2437 231.204 24.9073 229.956 24.9073C228.759 24.9073 227.68 25.2049 226.718 25.8001C225.782 26.3695 225.04 27.1847 224.494 28.2458C223.948 29.2809 223.675 30.4585 223.675 31.7783C223.675 33.0982 223.948 34.2886 224.494 35.3497C225.04 36.3849 225.782 37.2001 226.718 37.7953C227.68 38.3905 228.759 38.6882 229.956 38.6882C231.23 38.6882 232.336 38.3647 233.272 37.7177C234.234 37.0448 234.949 36.152 235.417 35.0391L239.28 36.8636C238.864 37.9765 238.187 38.9858 237.251 39.8916C236.341 40.7715 235.261 41.4702 234.013 41.9878C232.765 42.5054 231.412 42.7642 229.956 42.7642Z" fill="#141416"/>
<path d="M242.808 42.2984V12.9121H247.216V32.5935L245.5 32.1665L256.072 21.2971H261.573L253.614 29.7209L261.924 42.2984H256.852L249.44 31.1572L252.054 30.8078L245.812 37.4071L247.216 34.4957V42.2984H242.808Z" fill="#141416"/>
<path d="M111.435 55.7176V54.2186H112.786V55.7176H111.435Z" fill="#333333" fill-opacity="0.5"/>
<path d="M115.273 55.7176V54.2186H116.625V55.7176H115.273Z" fill="#333333" fill-opacity="0.5"/>
<path d="M119.112 55.7176V54.2186H120.463V55.7176H119.112Z" fill="#333333" fill-opacity="0.5"/>
<path d="M123.08 55.7176V50.6558H121.905V49.4798H123.08V49.1569C123.08 48.688 123.178 48.296 123.374 47.9808C123.57 47.658 123.84 47.412 124.185 47.2429C124.537 47.0738 124.941 46.9893 125.395 46.9893C125.481 46.9893 125.579 46.9969 125.689 47.0123C125.799 47.02 125.889 47.0315 125.959 47.0469V48.1769C125.896 48.1615 125.826 48.1538 125.748 48.1538C125.669 48.1461 125.607 48.1423 125.56 48.1423C125.207 48.1423 124.925 48.223 124.714 48.3844C124.502 48.5381 124.396 48.7956 124.396 49.1569V49.4798H125.853V50.6558H124.396V55.7176H123.08Z" fill="#333333" fill-opacity="0.5"/>
<path d="M129.682 55.8559C129.071 55.8559 128.511 55.7137 128.002 55.4293C127.501 55.1449 127.101 54.7567 126.803 54.2648C126.506 53.7728 126.357 53.2155 126.357 52.5929C126.357 51.9626 126.506 51.4053 126.803 50.921C127.101 50.4291 127.501 50.0447 128.002 49.768C128.503 49.4836 129.063 49.3414 129.682 49.3414C130.309 49.3414 130.869 49.4836 131.363 49.768C131.864 50.0447 132.26 50.4291 132.55 50.921C132.847 51.4053 132.996 51.9626 132.996 52.5929C132.996 53.2232 132.847 53.7843 132.55 54.2763C132.252 54.7683 131.852 55.1564 131.351 55.4408C130.85 55.7176 130.293 55.8559 129.682 55.8559ZM129.682 54.6453C130.058 54.6453 130.391 54.5569 130.681 54.3801C130.971 54.2033 131.198 53.9611 131.363 53.6537C131.535 53.3385 131.621 52.9849 131.621 52.5929C131.621 52.2009 131.535 51.8511 131.363 51.5437C131.198 51.2362 130.971 50.9941 130.681 50.8173C130.391 50.6405 130.058 50.5521 129.682 50.5521C129.314 50.5521 128.981 50.6405 128.683 50.8173C128.394 50.9941 128.162 51.2362 127.99 51.5437C127.826 51.8511 127.743 52.2009 127.743 52.5929C127.743 52.9849 127.826 53.3385 127.99 53.6537C128.162 53.9611 128.394 54.2033 128.683 54.3801C128.981 54.5569 129.314 54.6453 129.682 54.6453Z" fill="#333333" fill-opacity="0.5"/>
<path d="M134.057 55.7176V49.4798H135.326V50.7365L135.209 50.5521C135.35 50.1447 135.577 49.8526 135.891 49.6758C136.204 49.4913 136.58 49.3991 137.019 49.3991H137.406V50.5867H136.854C136.415 50.5867 136.059 50.7212 135.785 50.9902C135.518 51.2516 135.385 51.6282 135.385 52.1202V55.7176H134.057Z" fill="#333333" fill-opacity="0.5"/>
<path d="M141.803 55.8559C141.372 55.8559 140.992 55.7829 140.663 55.6369C140.341 55.4831 140.091 55.2756 139.911 55.0142C139.73 54.7452 139.64 54.43 139.64 54.0688C139.64 53.7305 139.715 53.4269 139.864 53.1579C140.02 52.8888 140.259 52.6621 140.58 52.4776C140.902 52.2931 141.305 52.1624 141.791 52.0856L144 51.7281V52.7543L142.049 53.0887C141.697 53.1502 141.438 53.2616 141.274 53.4231C141.109 53.5768 141.027 53.7767 141.027 54.0226C141.027 54.2609 141.117 54.4569 141.297 54.6107C141.485 54.7567 141.724 54.8297 142.014 54.8297C142.374 54.8297 142.688 54.7529 142.954 54.5991C143.228 54.4454 143.44 54.2417 143.589 53.988C143.738 53.7267 143.812 53.4384 143.812 53.1233V51.5206C143.812 51.2131 143.694 50.9633 143.459 50.7711C143.232 50.5713 142.927 50.4714 142.543 50.4714C142.19 50.4714 141.881 50.5636 141.615 50.7481C141.356 50.9249 141.164 51.1555 141.039 51.4399L139.934 50.898C140.052 50.5905 140.244 50.3215 140.51 50.0909C140.776 49.8526 141.086 49.6681 141.438 49.5374C141.799 49.4067 142.179 49.3414 142.578 49.3414C143.079 49.3414 143.522 49.4336 143.906 49.6181C144.298 49.8026 144.599 50.0601 144.811 50.3906C145.03 50.7135 145.14 51.0901 145.14 51.5206V55.7176H143.871V54.5876L144.141 54.6222C143.992 54.8759 143.8 55.0949 143.565 55.2794C143.338 55.4639 143.076 55.6061 142.778 55.706C142.488 55.806 142.163 55.8559 141.803 55.8559Z" fill="#333333" fill-opacity="0.5"/>
<path d="M149.524 58.2542C149.062 58.2542 148.635 58.1812 148.243 58.0351C147.852 57.8891 147.515 57.6854 147.233 57.424C146.951 57.1704 146.739 56.8706 146.598 56.5247L147.82 56.0289C147.93 56.321 148.13 56.5631 148.42 56.7553C148.717 56.9474 149.082 57.0435 149.513 57.0435C149.849 57.0435 150.151 56.9782 150.417 56.8475C150.684 56.7245 150.895 56.54 151.052 56.2941C151.209 56.0558 151.287 55.7675 151.287 55.4293V54.0226L151.522 54.2878C151.303 54.6875 150.997 54.9912 150.605 55.1987C150.222 55.4063 149.787 55.51 149.301 55.51C148.714 55.51 148.185 55.3755 147.715 55.1065C147.245 54.8374 146.873 54.4685 146.598 53.9996C146.332 53.5307 146.199 53.0041 146.199 52.4199C146.199 51.8281 146.332 51.3015 146.598 50.8403C146.873 50.3791 147.241 50.014 147.703 49.745C148.165 49.4759 148.694 49.3414 149.289 49.3414C149.775 49.3414 150.206 49.4452 150.582 49.6527C150.966 49.8526 151.279 50.1447 151.522 50.529L151.346 50.8519V49.4798H152.603V55.4293C152.603 55.9674 152.47 56.4478 152.204 56.8706C151.945 57.301 151.585 57.6393 151.122 57.8852C150.66 58.1312 150.128 58.2542 149.524 58.2542ZM149.454 54.2994C149.806 54.2994 150.12 54.2186 150.394 54.0572C150.668 53.8881 150.884 53.6652 151.04 53.3885C151.205 53.1041 151.287 52.7851 151.287 52.4315C151.287 52.0779 151.205 51.7589 151.04 51.4745C150.876 51.1901 150.656 50.9672 150.382 50.8057C150.108 50.6366 149.799 50.5521 149.454 50.5521C149.093 50.5521 148.772 50.6366 148.49 50.8057C148.208 50.9672 147.985 51.1901 147.82 51.4745C147.664 51.7512 147.585 52.0702 147.585 52.4315C147.585 52.7774 147.664 53.0925 147.82 53.3769C147.985 53.6614 148.208 53.8881 148.49 54.0572C148.772 54.2186 149.093 54.2994 149.454 54.2994Z" fill="#333333" fill-opacity="0.5"/>
<path d="M153.922 55.7176V49.4798H155.192V50.7365L155.074 50.5521C155.215 50.1447 155.442 49.8526 155.756 49.6758C156.069 49.4913 156.445 49.3991 156.884 49.3991H157.271V50.5867H156.719C156.28 50.5867 155.924 50.7212 155.65 50.9902C155.383 51.2516 155.25 51.6282 155.25 52.1202V55.7176H153.922Z" fill="#333333" fill-opacity="0.5"/>
<path d="M157.945 55.7176V49.4798H159.273V55.7176H157.945ZM157.945 48.6265V47.1276H159.273V48.6265H157.945Z" fill="#333333" fill-opacity="0.5"/>
<path d="M163.61 55.8559C162.976 55.8559 162.412 55.7137 161.918 55.4293C161.432 55.1372 161.045 54.7452 160.755 54.2532C160.473 53.7613 160.332 53.204 160.332 52.5814C160.332 51.9664 160.473 51.413 160.755 50.921C161.037 50.4291 161.424 50.0447 161.918 49.768C162.412 49.4836 162.976 49.3414 163.61 49.3414C164.041 49.3414 164.444 49.4183 164.82 49.572C165.196 49.7181 165.522 49.9218 165.796 50.1831C166.078 50.4445 166.285 50.7481 166.419 51.094L165.255 51.6244C165.122 51.3015 164.907 51.044 164.609 50.8519C164.319 50.652 163.986 50.5521 163.61 50.5521C163.25 50.5521 162.925 50.6405 162.635 50.8173C162.353 50.9864 162.13 51.2285 161.965 51.5437C161.8 51.8511 161.718 52.2009 161.718 52.5929C161.718 52.9849 161.8 53.3385 161.965 53.6537C162.13 53.9611 162.353 54.2033 162.635 54.3801C162.925 54.5569 163.25 54.6453 163.61 54.6453C163.994 54.6453 164.327 54.5492 164.609 54.357C164.899 54.1572 165.114 53.892 165.255 53.5614L166.419 54.1033C166.293 54.4339 166.09 54.7337 165.808 55.0027C165.533 55.264 165.208 55.4716 164.832 55.6253C164.456 55.7791 164.049 55.8559 163.61 55.8559Z" fill="#333333" fill-opacity="0.5"/>
<path d="M169.749 55.8559C169.271 55.8559 168.852 55.7522 168.492 55.5446C168.132 55.3294 167.85 55.0334 167.646 54.6568C167.45 54.2725 167.352 53.8305 167.352 53.3308V49.4798H168.68V53.2155C168.68 53.4999 168.739 53.7498 168.856 53.965C168.974 54.1802 169.138 54.3493 169.35 54.4723C169.561 54.5876 169.804 54.6453 170.078 54.6453C170.36 54.6453 170.607 54.5838 170.819 54.4608C171.03 54.3378 171.195 54.1648 171.312 53.9419C171.438 53.719 171.5 53.4577 171.5 53.1579V49.4798H172.816V55.7176H171.559V54.4954L171.7 54.6568C171.551 55.0411 171.304 55.3371 170.96 55.5446C170.615 55.7522 170.212 55.8559 169.749 55.8559Z" fill="#333333" fill-opacity="0.5"/>
<path d="M174.132 55.7176V46.9893H175.46V55.7176H174.132Z" fill="#333333" fill-opacity="0.5"/>
<path d="M179.527 55.7867C178.861 55.7867 178.344 55.6023 177.976 55.2333C177.607 54.8643 177.423 54.3455 177.423 53.6767V50.6558H176.307V49.4798H176.483C176.781 49.4798 177.012 49.3952 177.177 49.2261C177.341 49.057 177.423 48.8264 177.423 48.5343V48.05H178.751V49.4798H180.197V50.6558H178.751V53.6191C178.751 53.8343 178.786 54.0188 178.857 54.1725C178.927 54.3186 179.041 54.4339 179.198 54.5184C179.354 54.5953 179.558 54.6337 179.809 54.6337C179.871 54.6337 179.942 54.6299 180.02 54.6222C180.099 54.6145 180.173 54.6068 180.244 54.5991V55.7176C180.134 55.7329 180.012 55.7483 179.879 55.7637C179.746 55.7791 179.629 55.7867 179.527 55.7867Z" fill="#333333" fill-opacity="0.5"/>
<path d="M183.572 55.8559C183.094 55.8559 182.675 55.7522 182.315 55.5446C181.955 55.3294 181.673 55.0334 181.469 54.6568C181.273 54.2725 181.175 53.8305 181.175 53.3308V49.4798H182.503V53.2155C182.503 53.4999 182.562 53.7498 182.679 53.965C182.797 54.1802 182.961 54.3493 183.173 54.4723C183.384 54.5876 183.627 54.6453 183.901 54.6453C184.183 54.6453 184.43 54.5838 184.642 54.4608C184.853 54.3378 185.018 54.1648 185.135 53.9419C185.26 53.719 185.323 53.4577 185.323 53.1579V49.4798H186.639V55.7176H185.382V54.4954L185.523 54.6568C185.374 55.0411 185.127 55.3371 184.783 55.5446C184.438 55.7522 184.034 55.8559 183.572 55.8559Z" fill="#333333" fill-opacity="0.5"/>
<path d="M187.955 55.7176V49.4798H189.224V50.7365L189.106 50.5521C189.247 50.1447 189.474 49.8526 189.788 49.6758C190.101 49.4913 190.477 49.3991 190.916 49.3991H191.304V50.5867H190.751C190.313 50.5867 189.956 50.7212 189.682 50.9902C189.416 51.2516 189.282 51.6282 189.282 52.1202V55.7176H187.955Z" fill="#333333" fill-opacity="0.5"/>
<path d="M193.881 55.8559C193.45 55.8559 193.07 55.7829 192.741 55.6369C192.42 55.4831 192.169 55.2756 191.989 55.0142C191.809 54.7452 191.718 54.43 191.718 54.0688C191.718 53.7305 191.793 53.4269 191.942 53.1579C192.098 52.8888 192.337 52.6621 192.659 52.4776C192.98 52.2931 193.383 52.1624 193.869 52.0856L196.078 51.7281V52.7543L194.127 53.0887C193.775 53.1502 193.516 53.2616 193.352 53.4231C193.187 53.5768 193.105 53.7767 193.105 54.0226C193.105 54.2609 193.195 54.4569 193.375 54.6107C193.563 54.7567 193.802 54.8297 194.092 54.8297C194.453 54.8297 194.766 54.7529 195.032 54.5991C195.306 54.4454 195.518 54.2417 195.667 53.988C195.816 53.7267 195.89 53.4384 195.89 53.1233V51.5206C195.89 51.2131 195.773 50.9633 195.538 50.7711C195.31 50.5713 195.005 50.4714 194.621 50.4714C194.268 50.4714 193.959 50.5636 193.693 50.7481C193.434 50.9249 193.242 51.1555 193.117 51.4399L192.012 50.898C192.13 50.5905 192.322 50.3215 192.588 50.0909C192.854 49.8526 193.164 49.6681 193.516 49.5374C193.877 49.4067 194.257 49.3414 194.656 49.3414C195.158 49.3414 195.6 49.4336 195.984 49.6181C196.376 49.8026 196.677 50.0601 196.889 50.3906C197.108 50.7135 197.218 51.0901 197.218 51.5206V55.7176H195.949V54.5876L196.219 54.6222C196.07 54.8759 195.878 55.0949 195.643 55.2794C195.416 55.4639 195.154 55.6061 194.856 55.706C194.566 55.806 194.241 55.8559 193.881 55.8559Z" fill="#333333" fill-opacity="0.5"/>
<path d="M198.535 55.7176V46.9893H199.863V55.7176H198.535Z" fill="#333333" fill-opacity="0.5"/>
<path d="M205.985 55.8559C205.35 55.8559 204.786 55.7137 204.293 55.4293C203.807 55.1372 203.427 54.7452 203.153 54.2532C202.879 53.7536 202.741 53.1963 202.741 52.5814C202.741 51.9511 202.879 51.3938 203.153 50.9095C203.435 50.4252 203.811 50.0447 204.281 49.768C204.751 49.4836 205.284 49.3414 205.879 49.3414C206.357 49.3414 206.784 49.4221 207.16 49.5835C207.536 49.745 207.853 49.9679 208.112 50.2523C208.37 50.529 208.566 50.848 208.699 51.2093C208.84 51.5706 208.911 51.9549 208.911 52.3623C208.911 52.4622 208.907 52.566 208.899 52.6736C208.891 52.7812 208.875 52.8812 208.852 52.9734H203.787V51.9357H208.1L207.465 52.4084C207.544 52.0318 207.516 51.6974 207.383 51.4053C207.258 51.1055 207.062 50.8711 206.795 50.702C206.537 50.5252 206.231 50.4368 205.879 50.4368C205.526 50.4368 205.213 50.5252 204.939 50.702C204.665 50.8711 204.453 51.117 204.304 51.4399C204.155 51.755 204.097 52.1394 204.128 52.5929C204.089 53.0157 204.148 53.3846 204.304 53.6998C204.469 54.0149 204.696 54.2609 204.986 54.4377C205.284 54.6145 205.62 54.7029 205.996 54.7029C206.38 54.7029 206.705 54.6184 206.972 54.4493C207.246 54.2801 207.461 54.0611 207.618 53.792L208.699 54.3109C208.574 54.603 208.378 54.8682 208.112 55.1065C207.853 55.3371 207.54 55.5216 207.172 55.6599C206.811 55.7906 206.416 55.8559 205.985 55.8559Z" fill="#333333" fill-opacity="0.5"/>
<path d="M209.222 55.7176L211.443 52.5929L209.222 49.4798H210.785L212.606 52.0856H211.854L213.676 49.4798H215.239L213.006 52.5929L215.227 55.7176H213.664L211.866 53.1002H212.595L210.785 55.7176H209.222Z" fill="#333333" fill-opacity="0.5"/>
<path d="M218.701 55.8559C218.066 55.8559 217.502 55.7137 217.009 55.4293C216.523 55.1372 216.135 54.7452 215.845 54.2532C215.563 53.7613 215.422 53.204 215.422 52.5814C215.422 51.9664 215.563 51.413 215.845 50.921C216.127 50.4291 216.515 50.0447 217.009 49.768C217.502 49.4836 218.066 49.3414 218.701 49.3414C219.132 49.3414 219.535 49.4183 219.911 49.572C220.287 49.7181 220.612 49.9218 220.886 50.1831C221.169 50.4445 221.376 50.7481 221.509 51.094L220.346 51.6244C220.213 51.3015 219.997 51.044 219.7 50.8519C219.41 50.652 219.077 50.5521 218.701 50.5521C218.34 50.5521 218.015 50.6405 217.725 50.8173C217.443 50.9864 217.22 51.2285 217.056 51.5437C216.891 51.8511 216.809 52.2009 216.809 52.5929C216.809 52.9849 216.891 53.3385 217.056 53.6537C217.22 53.9611 217.443 54.2033 217.725 54.3801C218.015 54.5569 218.34 54.6453 218.701 54.6453C219.085 54.6453 219.418 54.5492 219.7 54.357C219.989 54.1572 220.205 53.892 220.346 53.5614L221.509 54.1033C221.384 54.4339 221.18 54.7337 220.898 55.0027C220.624 55.264 220.299 55.4716 219.923 55.6253C219.547 55.7791 219.14 55.8559 218.701 55.8559Z" fill="#333333" fill-opacity="0.5"/>
<path d="M225.557 55.8559C224.922 55.8559 224.358 55.7137 223.865 55.4293C223.379 55.1372 222.999 54.7452 222.725 54.2532C222.451 53.7536 222.314 53.1963 222.314 52.5814C222.314 51.9511 222.451 51.3938 222.725 50.9095C223.007 50.4252 223.383 50.0447 223.853 49.768C224.323 49.4836 224.856 49.3414 225.451 49.3414C225.929 49.3414 226.356 49.4221 226.732 49.5835C227.108 49.745 227.425 49.9679 227.684 50.2523C227.942 50.529 228.138 50.848 228.271 51.2093C228.412 51.5706 228.483 51.9549 228.483 52.3623C228.483 52.4622 228.479 52.566 228.471 52.6736C228.463 52.7812 228.448 52.8812 228.424 52.9734H223.359V51.9357H227.672L227.037 52.4084C227.116 52.0318 227.088 51.6974 226.955 51.4053C226.83 51.1055 226.634 50.8711 226.368 50.702C226.109 50.5252 225.804 50.4368 225.451 50.4368C225.099 50.4368 224.785 50.5252 224.511 50.702C224.237 50.8711 224.025 51.117 223.876 51.4399C223.728 51.755 223.669 52.1394 223.7 52.5929C223.661 53.0157 223.72 53.3846 223.876 53.6998C224.041 54.0149 224.268 54.2609 224.558 54.4377C224.856 54.6145 225.193 54.7029 225.569 54.7029C225.952 54.7029 226.278 54.6184 226.544 54.4493C226.818 54.2801 227.034 54.0611 227.19 53.792L228.271 54.3109C228.146 54.603 227.95 54.8682 227.684 55.1065C227.425 55.3371 227.112 55.5216 226.744 55.6599C226.383 55.7906 225.988 55.8559 225.557 55.8559Z" fill="#333333" fill-opacity="0.5"/>
<path d="M229.544 55.7176V46.9893H230.872V55.7176H229.544Z" fill="#333333" fill-opacity="0.5"/>
<path d="M232.189 55.7176V46.9893H233.517V55.7176H232.189Z" fill="#333333" fill-opacity="0.5"/>
<path d="M237.819 55.8559C237.185 55.8559 236.621 55.7137 236.127 55.4293C235.641 55.1372 235.261 54.7452 234.987 54.2532C234.713 53.7536 234.576 53.1963 234.576 52.5814C234.576 51.9511 234.713 51.3938 234.987 50.9095C235.269 50.4252 235.645 50.0447 236.115 49.768C236.585 49.4836 237.118 49.3414 237.713 49.3414C238.191 49.3414 238.618 49.4221 238.994 49.5835C239.37 49.745 239.687 49.9679 239.946 50.2523C240.205 50.529 240.4 50.848 240.534 51.2093C240.675 51.5706 240.745 51.9549 240.745 52.3623C240.745 52.4622 240.741 52.566 240.733 52.6736C240.725 52.7812 240.71 52.8812 240.686 52.9734H235.622V51.9357H239.934L239.3 52.4084C239.378 52.0318 239.351 51.6974 239.217 51.4053C239.092 51.1055 238.896 50.8711 238.63 50.702C238.371 50.5252 238.066 50.4368 237.713 50.4368C237.361 50.4368 237.047 50.5252 236.773 50.702C236.499 50.8711 236.288 51.117 236.139 51.4399C235.99 51.755 235.931 52.1394 235.962 52.5929C235.923 53.0157 235.982 53.3846 236.139 53.6998C236.303 54.0149 236.53 54.2609 236.82 54.4377C237.118 54.6145 237.455 54.7029 237.831 54.7029C238.215 54.7029 238.54 54.6184 238.806 54.4493C239.08 54.2801 239.296 54.0611 239.452 53.792L240.534 54.3109C240.408 54.603 240.212 54.8682 239.946 55.1065C239.687 55.3371 239.374 55.5216 239.006 55.6599C238.646 55.7906 238.25 55.8559 237.819 55.8559Z" fill="#333333" fill-opacity="0.5"/>
<path d="M241.806 55.7176V49.4798H243.075V50.702L242.922 50.5405C243.079 50.1485 243.33 49.8526 243.674 49.6527C244.019 49.4452 244.419 49.3414 244.873 49.3414C245.343 49.3414 245.758 49.4413 246.119 49.6412C246.479 49.841 246.761 50.1178 246.965 50.4714C247.168 50.8249 247.27 51.2323 247.27 51.6936V55.7176H245.954V52.0395C245.954 51.7243 245.895 51.4591 245.778 51.2439C245.66 51.021 245.492 50.8519 245.272 50.7365C245.061 50.6136 244.818 50.5521 244.544 50.5521C244.27 50.5521 244.023 50.6136 243.804 50.7365C243.592 50.8519 243.428 51.021 243.31 51.2439C243.193 51.4668 243.134 51.732 243.134 52.0395V55.7176H241.806Z" fill="#333333" fill-opacity="0.5"/>
<path d="M251.476 55.8559C250.842 55.8559 250.278 55.7137 249.784 55.4293C249.298 55.1372 248.911 54.7452 248.621 54.2532C248.339 53.7613 248.198 53.204 248.198 52.5814C248.198 51.9664 248.339 51.413 248.621 50.921C248.903 50.4291 249.291 50.0447 249.784 49.768C250.278 49.4836 250.842 49.3414 251.476 49.3414C251.907 49.3414 252.311 49.4183 252.687 49.572C253.063 49.7181 253.388 49.9218 253.662 50.1831C253.944 50.4445 254.152 50.7481 254.285 51.094L253.121 51.6244C252.988 51.3015 252.773 51.044 252.475 50.8519C252.185 50.652 251.852 50.5521 251.476 50.5521C251.116 50.5521 250.791 50.6405 250.501 50.8173C250.219 50.9864 249.996 51.2285 249.831 51.5437C249.667 51.8511 249.584 52.2009 249.584 52.5929C249.584 52.9849 249.667 53.3385 249.831 53.6537C249.996 53.9611 250.219 54.2033 250.501 54.3801C250.791 54.5569 251.116 54.6453 251.476 54.6453C251.86 54.6453 252.193 54.5492 252.475 54.357C252.765 54.1572 252.98 53.892 253.121 53.5614L254.285 54.1033C254.159 54.4339 253.956 54.7337 253.674 55.0027C253.399 55.264 253.074 55.4716 252.698 55.6253C252.322 55.7791 251.915 55.8559 251.476 55.8559Z" fill="#333333" fill-opacity="0.5"/>
<path d="M258.332 55.8559C257.698 55.8559 257.134 55.7137 256.64 55.4293C256.154 55.1372 255.774 54.7452 255.5 54.2532C255.226 53.7536 255.089 53.1963 255.089 52.5814C255.089 51.9511 255.226 51.3938 255.5 50.9095C255.782 50.4252 256.158 50.0447 256.628 49.768C257.098 49.4836 257.631 49.3414 258.226 49.3414C258.704 49.3414 259.131 49.4221 259.507 49.5835C259.883 49.745 260.201 49.9679 260.459 50.2523C260.718 50.529 260.914 50.848 261.047 51.2093C261.188 51.5706 261.258 51.9549 261.258 52.3623C261.258 52.4622 261.254 52.566 261.246 52.6736C261.239 52.7812 261.223 52.8812 261.199 52.9734H256.135V51.9357H260.447L259.813 52.4084C259.891 52.0318 259.864 51.6974 259.731 51.4053C259.605 51.1055 259.409 50.8711 259.143 50.702C258.885 50.5252 258.579 50.4368 258.226 50.4368C257.874 50.4368 257.561 50.5252 257.286 50.702C257.012 50.8711 256.801 51.117 256.652 51.4399C256.503 51.755 256.444 52.1394 256.476 52.5929C256.436 53.0157 256.495 53.3846 256.652 53.6998C256.816 54.0149 257.044 54.2609 257.333 54.4377C257.631 54.6145 257.968 54.7029 258.344 54.7029C258.728 54.7029 259.053 54.6184 259.319 54.4493C259.594 54.2801 259.809 54.0611 259.966 53.792L261.047 54.3109C260.921 54.603 260.726 54.8682 260.459 55.1065C260.201 55.3371 259.887 55.5216 259.519 55.6599C259.159 55.7906 258.763 55.8559 258.332 55.8559Z" fill="#333333" fill-opacity="0.5"/>
<path fill-rule="evenodd" clip-rule="evenodd" d="M30.0179 10.9991C30.0119 10.9912 30.0039 11.0227 29.997 11.0339C30.0159 10.9328 29.997 11.0036 30.0299 10.9081C30.0348 10.8935 30.0528 10.8474 30.0587 10.8328C30.0896 10.7643 30.1126 10.734 30.1504 10.6812L30.0179 11.0002V10.9991ZM1.22367 5.27751C1.37115 5.40106 1.62027 5.50889 1.8106 5.6302C2.27197 5.92447 3.0273 6.5748 3.42689 6.9814C5.47265 9.06268 7.15869 12.4019 8.71918 15.0785C10.4002 17.9595 12.0245 20.4126 14.5326 22.103C14.999 22.4163 16.4708 23.1554 17.0916 23.1981C17.0876 21.6481 17.4274 19.8364 17.8469 18.3942C18.1807 17.2485 18.6132 16.2197 19.0835 15.1695C19.2141 14.8786 19.524 14.4125 19.5439 14.0968C19.0188 13.4993 16.0174 11.1417 15.4514 10.7621C14.2805 9.97583 13.4654 9.32663 12.2407 8.61902L11.1267 7.96082C11.5173 8.01811 13.1077 8.75604 13.5033 8.96608C15.6298 10.0926 17.0438 10.9575 18.9919 12.4109C19.2958 12.6378 19.7661 13.0714 20.0461 13.2151C20.2285 13.0388 20.7935 12.0032 21.0606 11.5944C22.1607 9.90844 23.3136 8.48423 24.6828 6.99375C24.3469 6.48832 22.9718 5.57741 22.4706 5.25393C21.7202 4.77095 20.8493 4.37446 19.9594 4.00381C15.4006 2.11123 9.2802 2.10898 4.47618 3.75558C3.7896 3.99033 1.6133 4.83834 1.22168 5.27639L1.22367 5.27751ZM29.997 11.0339C29.9641 11.3304 29.8007 11.6393 29.695 11.9403L28.8789 14.618C27.1221 20.5013 26.2662 27.9717 26.3319 34.2795C26.3469 35.6442 26.2442 35.4622 27.4709 34.9433C43.1186 28.3142 35.1258 14.2799 35.7765 4.06334C35.931 1.63499 36.4063 1.07789 36.5329 0.279297C31.0562 2.04047 26.7544 5.50103 23.2438 9.94775L21.7501 12.0167L20.4686 14.1732C19.1942 16.4342 17.5848 20.5384 17.9047 24.4628C18.1598 27.5931 19.6485 30.555 21.7342 32.333C22.2294 32.7542 23.1023 33.5247 23.6384 33.7819C23.7122 34.1694 23.5358 35.9093 23.5069 36.4754C23.473 37.1291 23.3664 38.5218 23.4411 39.1317L24.8053 38.9385C24.884 38.596 24.8382 37.4716 24.8442 37.0089C24.9099 32.3409 25.1162 28.6703 25.8825 24.0203C26.32 21.3594 26.8013 19.6724 27.4908 17.2272C27.7499 16.3062 29.5356 11.4315 29.997 11.0339Z" fill="#00C700"/>
<path fill-rule="evenodd" clip-rule="evenodd" d="M44.983 46.6289L25.6465 60.9317V77.3019L45.1863 62.7745L44.983 46.6289Z" fill="#00C700"/>
<path fill-rule="evenodd" clip-rule="evenodd" d="M48.0343 22.7725L25.6465 39.8138V56.1719L48.2394 38.9062L48.0343 22.7725Z" fill="#00C700"/>
<path fill-rule="evenodd" clip-rule="evenodd" d="M3.2581 46.6289L22.5925 60.9317V77.3019L3.05273 62.7745L3.2581 46.6289Z" fill="#00C700"/>
<path fill-rule="evenodd" clip-rule="evenodd" d="M0.20304 22.7725L22.5929 39.8138V56.1719L0 38.9062L0.20304 22.7725Z" fill="#00C700"/>
</svg>
