<svg width="47" height="46" viewBox="0 0 47 46" fill="none" xmlns="http://www.w3.org/2000/svg">
<path d="M14.7579 0.000374445C16.2384 0.0467603 17.6719 0.313072 19.0607 0.799695H19.1993C19.2933 0.845694 19.3638 0.896536 19.4108 0.942535C19.9302 1.11443 20.4213 1.30811 20.8913 1.57442L21.7843 1.98599C22.1368 2.17967 22.5598 2.5404 22.7948 2.68808C23.0298 2.83092 23.2883 2.97861 23.4998 3.14566C26.1106 1.09022 29.2807 -0.0234491 32.5472 0.000374445C34.03 0.000374445 35.5105 0.216231 36.9182 0.702855C45.5919 3.60807 48.7174 13.4132 46.1066 21.9836C44.6261 26.3632 42.2056 30.3603 39.0355 33.6262C34.4977 38.1535 29.5181 42.1724 24.1578 45.6344L23.5703 46L22.9593 45.6102C17.5802 42.1724 12.5724 38.1535 7.9923 33.602C4.84334 30.3361 2.42051 26.3632 0.916529 21.9836C-1.73894 13.4132 1.38653 3.60807 10.1543 0.652013C10.8358 0.409912 11.5384 0.240441 12.2434 0.146022H12.5254C13.1858 0.0467602 13.8414 0.000374445 14.4994 0.000374445H14.7579ZM35.6962 7.65116C34.7327 7.3098 33.6752 7.84484 33.3227 8.86167C32.9937 9.87849 33.5107 10.9922 34.4977 11.3529C36.004 11.9339 37.0121 13.4616 37.0121 15.1539V15.2289C36.9675 15.7833 37.1297 16.3184 37.4586 16.73C37.7876 17.1415 38.2811 17.3812 38.7981 17.4321C39.7616 17.4054 40.5841 16.6089 40.6546 15.5897V15.3016C40.7251 11.9097 38.73 8.83746 35.6962 7.65116Z" fill="#141416" fill-opacity="0.7"/>
</svg>
