<svg width="234" height="65" viewBox="0 0 234 65" fill="none" xmlns="http://www.w3.org/2000/svg">
<path fill-rule="evenodd" clip-rule="evenodd" d="M222.99 48.4417C222.99 48.1514 222.944 48.0603 222.944 47.758V45.2486L225.046 45.4333C225.748 45.4741 226.452 45.6156 227.194 45.6156C226.987 45.9035 223.366 48.4105 222.987 48.4441L222.99 48.4417ZM133.195 51.4981H141.606V2.32468H133.195V51.4981ZM181.158 20.3416V15.6874C181.16 15.4643 181.227 15.1404 181.023 15.1404H173.551V51.4957H181.784C181.958 51.4957 181.924 51.3494 181.922 51.1814C181.886 46.5033 181.917 41.7172 181.917 37.0366C181.917 34.6615 181.801 32.0322 182.047 29.8706C182.17 28.7887 182.382 27.7811 182.78 26.9702C183.137 26.2433 183.829 25.4492 184.868 25.4492C185.376 25.4492 185.62 25.4468 186.078 25.6771C186.878 26.0777 187.197 26.807 187.428 27.7211C187.705 28.8127 187.821 30.4896 187.821 31.881V51.4957H196.187L196.097 27.6851C196.085 27.4356 196.114 27.1573 196.095 26.9126C196.056 26.4376 196.044 25.9098 196.006 25.4084C195.774 22.3904 195.102 18.8158 193.175 16.5247C192.79 16.0641 192.476 15.7498 191.98 15.3707C189.836 13.7298 186.874 13.8354 184.764 15.4475C184.472 15.6706 183.899 16.1744 183.665 16.4719L183.081 17.1556C182.814 17.4987 182.614 17.7914 182.368 18.1632L181.748 19.2188C181.645 19.4275 181.558 19.5595 181.449 19.7802C181.396 19.8882 181.367 19.9433 181.314 20.0537C181.285 20.1137 181.266 20.1593 181.24 20.2072C181.235 20.2168 181.227 20.2288 181.223 20.236C181.218 20.2432 181.211 20.2552 181.206 20.2648C181.153 20.3488 181.189 20.2984 181.148 20.344L181.158 20.3416ZM156.772 44.061C155.866 44.061 155.29 43.9219 154.776 43.1302C153.988 41.9211 153.985 39.7499 155.039 38.596C156.379 37.1278 158.117 36.7583 160.015 35.5948C160.193 35.4844 160.316 35.3933 160.487 35.3021C160.492 35.5084 160.533 35.482 160.533 35.7123C160.533 38.5408 160.767 44.061 156.775 44.061H156.772ZM146.661 25.7682V26.2697H154.805C154.805 25.1877 155.215 23.5179 156.252 22.9542C157.264 22.4024 158.838 22.5487 159.747 23.2372C160.789 24.0265 160.982 26.7615 159.631 27.8578C159.482 27.9802 159.383 28.0833 159.21 28.2033C157.985 29.0502 156.488 29.1197 155.102 29.4436C153.438 29.8322 152.016 30.1993 150.511 30.967C149.82 31.3197 149.219 31.6723 148.645 32.1665C148.064 32.6679 147.63 33.1405 147.23 33.8267C146.842 34.4936 146.555 35.1749 146.321 36.0002C146.08 36.8471 145.962 37.5908 145.832 38.5576C145.673 39.7451 145.769 39.9011 145.724 40.7743C145.709 41.0406 145.646 41.151 145.697 41.4845C145.762 41.9187 145.716 42.5424 145.762 42.9695C145.786 43.1998 145.806 43.4925 145.813 43.694C145.878 45.2654 146.538 47.842 147.291 49.1662C147.476 49.4925 147.657 49.8068 147.881 50.1139C148.101 50.4137 148.484 50.9103 148.764 51.1311C149.34 51.5797 149.47 51.81 150.374 52.225C151.418 52.7024 152.242 52.772 153.46 52.772C155.217 52.772 156.859 51.9827 157.876 51.2078C158.874 50.4497 159.395 49.8308 160.111 48.9263L160.75 48.0291C160.75 48.3841 161.242 51.1383 161.242 51.4957H169.653C169.653 49.6173 169.622 50.8408 169.108 49.5405C168.612 48.2834 168.756 46.8272 168.756 45.3829V27.318C168.756 25.5715 168.679 23.4748 168.334 21.7258C167.662 18.2952 165.798 15.9105 162.696 14.7014C159.697 13.5307 155.625 13.5811 152.725 14.7614C152.016 15.0493 151.485 15.3659 150.895 15.769C150.601 15.9681 150.396 16.1696 150.118 16.3903C149.882 16.5775 149.595 16.8846 149.41 17.1269C149.304 17.266 149.217 17.3524 149.101 17.4963C148.981 17.6474 148.906 17.7626 148.795 17.9137C148.597 18.1848 148.419 18.4847 148.265 18.787C148.185 18.9453 148.11 19.0437 148.026 19.226L147.409 20.7878C146.994 22.1817 146.654 23.945 146.654 25.7659L146.661 25.7682ZM102.546 37.1278C102.546 34.5392 102.732 31.5572 103.638 29.1653C103.79 28.7647 103.935 28.3616 104.111 28.0066C104.528 27.1669 104.745 26.7159 105.318 25.953C105.526 25.6771 106.23 24.8398 106.464 24.6575C106.632 24.5255 106.722 24.3864 106.878 24.2592C107.182 24.0097 107.464 23.7626 107.78 23.5371C107.939 23.422 108.096 23.3212 108.269 23.2157C109.612 22.4024 110.861 21.9274 112.445 21.7258C115.22 21.3732 117.828 21.949 120.056 23.5179C120.88 24.0985 121.919 25.1085 122.524 25.929L123.168 26.8694C123.38 27.2317 123.542 27.5316 123.737 27.9322C124.101 28.6759 124.385 29.4388 124.629 30.3073C125.644 33.9298 125.569 39.095 124.684 42.732C124.279 44.3945 123.549 46.0811 122.667 47.2902C122.426 47.6212 121.635 48.5617 121.348 48.8184C120.692 49.4061 120 49.9579 119.236 50.4065C118.12 51.0615 116.263 51.69 114.894 51.7284L112.57 51.678C110.974 51.5269 109.154 50.8312 107.869 49.9027C107.712 49.79 107.573 49.6748 107.409 49.5501L106.538 48.7968C104.723 46.9255 103.992 45.5101 103.276 42.9983C102.823 41.4077 102.546 39.155 102.546 37.1302V37.1278ZM99.0552 23.6259L97.6641 23.1293C97.1699 22.9686 96.6661 22.8414 96.1477 22.7119C92.8522 21.8914 89.3999 22.2152 86.871 24.2952C86.6829 24.4488 86.5696 24.5639 86.3864 24.7127C85.9838 25.0389 85.0773 26.0921 84.7061 26.5575L83.9322 27.5459V23.3932C83.9346 23.1821 83.9925 22.9374 83.7972 22.9374H77.8473C77.7436 22.9374 77.7123 22.9686 77.7123 23.0741V53.4102H84.6024V37.9003C84.6024 36.2521 84.8001 34.4168 85.2244 33.0134C85.533 31.9842 85.9452 30.8159 86.6516 30.0434C87.1169 29.5324 87.1603 29.4556 87.7822 29.0046C88.7948 28.2729 90.4872 27.6827 91.9433 27.6827C93.0233 27.6827 93.8406 27.6923 94.8965 27.9562C95.4582 28.0953 96.3792 28.3112 96.8203 28.5512C96.5069 29.9234 96.2225 30.7775 96.0585 32.2913C95.6174 36.4177 95.6559 41.2038 96.9361 45.1262C97.37 46.4601 97.9968 48.0603 98.761 49.2406C98.9274 49.4973 99.0455 49.7084 99.2167 49.9627C99.3854 50.2098 99.5301 50.4089 99.7085 50.6488L100.253 51.3254C100.969 52.0931 101.447 52.6689 102.322 53.367L103.002 53.9044C103.134 53.9955 103.209 54.0603 103.342 54.1515C103.583 54.3146 103.792 54.4681 104.041 54.6241C104.294 54.7824 104.53 54.9216 104.783 55.0535C105.707 55.5405 106.145 55.802 107.228 56.1667C110.924 57.4118 115.046 57.6277 118.843 56.6609C121.543 55.9724 123.493 54.9144 125.622 53.3094C125.757 53.2062 125.822 53.1415 125.943 53.0431C126.555 52.5393 126.934 52.1075 127.481 51.5557C127.804 51.2294 128.573 50.2266 128.812 49.8572C130.167 47.77 130.719 46.4385 131.336 43.9459C131.589 42.9263 131.731 41.9235 131.864 40.8343C132.291 37.3437 132.24 33.0446 131.408 29.6499C130.704 26.7759 129.73 24.7223 127.987 22.4624C127.802 22.2224 127.647 22.0497 127.457 21.817L126.297 20.6295C126.177 20.5143 126.109 20.4831 125.984 20.356C125.875 20.248 125.784 20.1856 125.67 20.0825C125.051 19.5211 123.636 18.5447 122.893 18.1704C121.473 17.4531 120.27 16.9037 118.653 16.5631C116.047 16.0113 113.643 15.8961 110.974 16.2536C110.256 16.3496 109.378 16.5199 108.698 16.7166C106.767 17.2732 104.665 18.1944 103.12 19.3748C102.98 19.4827 102.862 19.5619 102.729 19.6603L100.581 21.6227C100.403 21.8602 100.003 22.2704 99.6217 22.7886C99.4939 22.9614 99.101 23.4652 99.06 23.6283L99.0552 23.6259ZM145.454 65L140.89 64.9544C140.543 64.9544 140.326 64.9112 140.041 64.9064C139.429 64.8992 138.843 64.9112 138.291 64.8656C138.016 64.8417 137.64 64.8633 137.353 64.8633C137.001 64.8633 136.806 64.8177 136.505 64.8153C135.873 64.8153 135.343 64.7697 134.759 64.7721L132.973 64.7241C132.696 64.7001 132.462 64.6785 132.119 64.6809L127.799 64.4794C127.288 64.4002 124.947 64.3642 124.369 64.2827L123.486 64.2251C123.342 64.2179 123.185 64.2347 123.04 64.2227L119.234 63.9516C118.901 63.9348 118.703 63.9084 118.383 63.906C118.166 63.9036 118.149 63.8748 117.98 63.8628C117.018 63.7861 115.969 63.7477 114.979 63.6397L104.159 62.6753C103.612 62.6417 103.014 62.5554 102.495 62.5002C100.858 62.325 99.2287 62.1883 97.5942 61.9772C95.4582 61.7013 93.2741 61.4926 91.1188 61.1903C88.9346 60.8832 86.8348 60.6553 84.6699 60.329L78.3343 59.3982C76.2224 59.0983 74.1419 58.7433 72.071 58.393C66.4032 57.431 60.7957 56.3658 55.1761 55.2286L47.7412 53.5949C45.7836 53.1775 43.8429 52.6521 41.8757 52.1842C41.8468 52.5465 41.5502 53.3526 41.4345 53.7412C41.3839 53.9092 41.3092 54.0555 41.2947 54.2378H34.853C34.8602 53.9595 35.2942 52.772 35.4075 52.4313C35.5473 52.0043 35.9403 51.0111 35.9716 50.6345C35.5063 50.5241 35.0652 50.3898 34.5926 50.2602C31.0391 49.2742 27.488 48.185 24.0068 47.0023L17.6881 44.6848C16.4489 44.205 13.973 43.183 12.8375 42.6072C12.635 42.5041 12.4398 42.4273 12.2276 42.3169C11.2826 41.8299 10.258 41.4221 9.35875 40.8631C9.1707 40.748 8.9923 40.6784 8.80426 40.5608C8.08102 40.1122 7.33849 39.7308 6.62971 39.2653C5.59307 38.5864 4.53231 37.8859 3.6138 37.051L1.50434 34.8223C1.25844 34.46 1.05111 34.1673 0.824495 33.7811C0.159113 32.6367 0 31.7491 0 30.3792C0 28.3136 1.54292 26.5407 2.946 25.4012C4.0839 24.4776 5.34476 23.8034 6.63454 23.1413C7.53618 22.6783 8.42577 22.3376 9.37562 21.9657C9.86261 21.7762 10.3279 21.5987 10.8197 21.4332C11.7888 21.1045 12.7652 20.7998 13.7946 20.4975C20.1206 18.6335 26.9239 17.5563 33.4403 16.6231C35.1134 16.3831 45.8005 15.0541 47.5146 15.0541C47.6279 14.8142 47.7412 14.3823 47.8328 14.1016C47.9292 13.8042 48.0377 13.4755 48.1341 13.178L49.9688 7.52104C50.2508 6.65498 52.2205 0.743707 52.3916 0H59.1033C59.1322 0.352661 60.1231 3.00122 60.2605 3.42825C61.1862 6.28073 62.2518 9.05163 63.18 11.9017C64.1009 14.7278 65.1351 17.5587 66.0995 20.3752C66.4587 21.4236 66.8709 22.7574 67.2591 23.7554C67.6882 24.8638 68.0016 26.0154 68.4162 27.1381C68.5175 27.414 68.6163 27.7331 68.7176 28.0162L69.5903 30.5472C69.9736 31.6915 70.3811 32.7687 70.7547 33.9226C71.6757 36.7607 72.7533 39.558 73.6742 42.3961C74.2263 44.097 74.8555 45.7668 75.4196 47.4581C75.7837 48.5473 76.179 49.778 76.5792 50.836C76.6974 51.1455 77.6906 53.9308 77.7171 54.2378H70.827C70.5498 53.6501 70.3666 52.8032 70.1617 52.1794L66.179 39.8627C66.0633 39.5076 65.5691 38.097 65.5474 37.8163H46.2634C46.0753 38.2146 45.5281 40.2034 45.3738 40.6952C45.2219 41.1798 45.0869 41.6308 44.9471 42.1298L43.2161 47.8444C43.0666 48.2906 42.975 48.8376 42.7749 49.2646C43.0112 49.2838 43.339 49.3845 43.544 49.4373L47.2373 50.325C49.7229 50.8576 52.1385 51.4765 54.6481 51.9827C56.6804 52.393 58.7128 52.808 60.7258 53.223C62.7509 53.6405 64.829 53.9595 66.8492 54.3698C67.8834 54.5809 68.9346 54.7128 69.9736 54.924C70.9813 55.1279 72.03 55.2742 73.0836 55.447L92.1434 58.2299C93.2548 58.3858 94.3083 58.477 95.4221 58.6281C96.9867 58.8416 98.7394 58.9928 100.326 59.1943L107.78 59.9404C108.009 59.9596 108.356 60.0148 108.59 60.0268L113.626 60.4586C114.176 60.5426 114.733 60.521 115.294 60.5833L120.849 60.9864C121.063 60.9912 121.051 61.0224 121.251 61.0344C121.399 61.0416 121.546 61.0248 121.693 61.0416C121.84 61.0583 121.89 61.0823 122.1 61.0823L123.397 61.1735C123.542 61.1807 123.698 61.1639 123.843 61.1759C124.055 61.1927 124.448 61.1975 124.684 61.2311C125.466 61.3414 126.509 61.2647 127.266 61.3822C127.794 61.4638 128.45 61.3846 128.98 61.459C129.446 61.5238 130.205 61.5286 130.74 61.5358C131.244 61.543 131.922 61.6317 132.438 61.6293C133.884 61.6245 135.41 61.7733 136.869 61.7637C137.211 61.7613 137.365 61.8116 137.717 61.8092C138.016 61.8069 138.315 61.8093 138.614 61.8069C138.937 61.8045 139.108 61.8548 139.463 61.8548C140.692 61.85 141.794 61.9004 143.043 61.9004C143.677 61.9004 144.176 61.946 144.832 61.946H150.557C152.206 61.946 153.713 61.9004 155.345 61.9004C155.796 61.9004 156.071 61.8524 156.509 61.8548C156.893 61.8548 157.341 61.8764 157.717 61.8548L159.998 61.7637C161.517 61.7661 163.163 61.5741 164.653 61.5813L172.573 61.0799C172.925 61.0751 173.334 60.9984 173.691 60.9888C174.73 60.9624 176.997 60.6745 178.079 60.5809C180.786 60.3506 183.995 59.9452 186.64 59.5469C192.105 58.7265 197.418 57.7788 202.763 56.4162C205.287 55.7732 207.823 55.0367 210.227 54.2186C210.456 54.1419 216.647 51.9323 217.134 51.4981H215.434C215.434 50.7448 214.943 48.7632 214.943 48.0315L214.863 48.1322C214.007 49.3126 213.908 49.4637 212.874 50.5289C210.634 52.8344 206.464 53.6117 203.677 51.7164C202.785 51.1119 202.153 50.3202 201.596 49.3678C201.047 48.4321 200.646 47.319 200.374 46.0978C199.714 43.1182 199.653 38.4329 200.659 35.5204C200.82 35.0478 200.982 34.6639 201.191 34.2393C202.44 31.7299 205.225 30.4656 207.775 29.8203C208.25 29.7003 208.747 29.5779 209.251 29.4556C211.061 29.0166 213.257 28.9446 214.342 27.2557C214.873 26.4304 214.868 25.0293 214.547 24.1201C213.99 22.5463 211.657 22.304 210.468 22.9398C209.427 23.4963 208.993 25.2069 208.993 26.272H200.849C200.849 23.2804 201.297 20.7662 202.708 18.36L203.298 17.5035L204.706 16.0641C204.839 15.9513 204.945 15.8697 205.09 15.7714C207.821 13.9073 211.411 13.5379 214.718 14.092C216.003 14.308 217.247 14.771 218.356 15.3995C219.67 16.1456 220.639 17.2756 221.404 18.5879C222.257 20.0537 222.594 21.5339 222.775 23.4388C223.06 26.4232 222.951 30.0362 222.951 33.2965C222.951 36.6408 222.951 39.9874 222.951 43.3317C223.147 43.2262 223.286 43.087 223.455 42.9335L224.868 41.7292C225.442 41.2542 225.374 41.1102 226.001 41.1798L231.628 41.6932C231.842 41.71 232.18 41.7604 232.394 41.7771C232.679 41.7987 232.937 41.8035 233.221 41.8467C233.433 41.8779 233.802 41.9187 234 41.9187C233.882 42.4393 233.634 46.1938 233.52 47.0863L233.337 49.1326C233.301 49.4829 233.277 49.8284 233.248 50.1379C233.221 50.4209 233.298 50.4377 233.12 50.6009L232.529 51.0951C232.419 51.1862 232.349 51.251 232.235 51.3422C231.211 52.1627 230.254 53.0695 229.231 53.89C229.027 54.0555 228.851 54.2546 228.631 54.3722C228.631 53.2854 228.855 52.237 228.899 51.179C228.942 50.169 229.166 48.9719 229.166 47.9859C228.995 48.0771 228.867 48.1898 228.718 48.305C228.581 48.4105 228.453 48.5089 228.308 48.6169C226.883 49.7156 225.333 50.6105 223.805 51.5509C223.646 51.6493 223.489 51.7428 223.32 51.8316L218.935 54.0675C218.588 54.2378 218.26 54.3626 217.905 54.5233C216.543 55.1399 215.126 55.7396 213.713 56.2243L209.294 57.7405C200.499 60.5857 188.749 62.6057 179.685 63.4982C178.809 63.5846 177.898 63.7069 176.997 63.7693C176.572 63.7981 176.071 63.882 175.651 63.9036L170.863 64.2683C170.649 64.2731 170.456 64.3019 170.193 64.3163L168.089 64.4506C167.652 64.4554 167.156 64.549 166.705 64.5442L163.26 64.7265C163.014 64.7409 162.744 64.7121 162.498 64.7265L160.396 64.8177C159.482 64.8153 158.52 64.9088 157.577 64.9088C156.599 64.9088 155.69 64.9592 154.67 64.9544C154.383 64.952 154.248 64.9904 154.024 65H145.454ZM210.953 44.061H210.596C209.12 44.061 208.404 42.5448 208.404 41.0046C208.404 39.9395 208.621 39.3253 209.222 38.6008C209.62 38.121 210.302 37.6076 210.863 37.3101C211.816 36.8063 212.717 36.4464 213.742 35.8659L214.668 35.3045C214.68 35.446 214.714 35.4652 214.714 35.6236C214.714 38.181 214.916 41.9115 212.84 43.4781C212.416 43.7972 211.688 44.0634 210.955 44.0634L210.953 44.061ZM55.5667 5.74334L55.6824 6.12719C55.7282 6.31191 55.7547 6.37909 55.8005 6.55422L56.4876 9.09242C57.1771 11.561 58.1559 14.8813 58.9514 17.302L59.9808 20.5407C60.0724 20.8262 60.1448 21.0421 60.2388 21.3276L61.5238 25.3988C61.719 26.0297 63.5705 31.6723 63.5778 31.9266H48.0522L49.0527 28.7503C49.1443 28.4696 49.2142 28.2057 49.2986 27.9514L51.3236 21.5315C51.4056 21.2844 51.5093 20.9893 51.5768 20.7398C51.9191 19.4731 52.6689 17.2612 53.0908 15.9417C53.4403 14.8525 53.7152 13.7778 54.0286 12.655C54.1877 12.0864 54.313 11.5491 54.4504 10.9877C54.5903 10.4167 54.7132 9.83373 54.8531 9.25316C54.9856 8.69897 55.111 8.11121 55.2219 7.53303C55.3304 6.97165 55.4389 6.31191 55.5691 5.74334H55.5667ZM36.9552 47.71L29.5999 45.5844C29.178 45.4621 28.7874 45.3182 28.4017 45.2102C27.001 44.8167 23.6838 43.67 22.4542 43.1998C22.0637 43.051 21.6731 42.9359 21.2971 42.7823L17.8641 41.4461C16.9769 41.0838 14.8819 40.2178 14.002 39.7715L11.3477 38.4641C11.15 38.3633 11.0391 38.2913 10.8559 38.1906C8.57282 36.9383 6.65141 35.7387 4.73 33.9442C4.6408 33.8627 4.62392 33.8099 4.54919 33.7187C4.37079 33.5004 4.27918 33.4572 3.98024 33.0662C3.0569 31.8619 2.57474 30.6407 3.45227 29.2421C3.703 28.8414 3.94167 28.6135 4.25989 28.2873C4.41177 28.1313 4.54437 28.0234 4.71071 27.8794C5.8679 26.8838 8.31487 25.6243 9.79269 25.0773C11.2344 24.5447 12.1095 24.2017 13.662 23.7315C14.5733 23.4556 15.4798 23.2013 16.3838 22.9494C17.9846 22.5031 20.4774 21.9633 22.0757 21.6371C28.0087 20.428 34.1129 19.5595 40.1688 18.8734C40.6679 18.8158 41.2151 18.7438 41.7407 18.6982C42.2494 18.6527 42.8111 18.5639 43.3125 18.5207C43.8526 18.4751 44.3636 18.4367 44.9061 18.3672L46.4851 18.1968C46.4683 18.4127 46.2826 18.8806 46.2103 19.1037C46.1139 19.4012 46.0054 19.7298 45.909 20.0273C45.7065 20.6439 45.4847 21.2484 45.3111 21.8818C45.0821 22.7239 44.4167 24.6311 44.1057 25.5811L42.3169 31.1014C42.2204 31.3988 42.1119 31.7275 42.0155 32.025L39.3323 40.3281C39.1322 40.9423 38.9393 41.5276 38.7392 42.1418L37.2397 46.772C37.1626 47.0095 36.9721 47.4917 36.9552 47.7124V47.71Z" fill="#141416" fill-opacity="0.7"/>
</svg>
