<svg width="142" height="69" viewBox="0 0 142 69" fill="none" xmlns="http://www.w3.org/2000/svg">
<path fill-rule="evenodd" clip-rule="evenodd" d="M9.33085 12.4026C9.33085 12.9638 9.34693 14.0327 9.46802 14.5479C9.63091 15.2419 9.73379 15.7463 9.99742 16.3997L10.7701 18.0084C10.7701 18.7924 9.55697 16.6996 9.39729 16.3547C9.11224 15.7399 8.92148 15.2462 8.78967 14.5811C8.76073 14.4365 8.73073 14.3604 8.70608 14.218C8.42745 12.6521 8.71465 10.7982 9.28263 9.52578C9.68557 8.62183 10.2439 7.79392 10.9072 7.13202C11.5695 6.47119 12.3668 5.83392 13.2274 5.43336C13.8907 5.12383 14.7588 4.79823 15.5132 4.6922C16.5656 4.54547 17.2418 4.47371 18.3209 4.65793C19.1622 4.80145 19.5501 4.8882 20.3463 5.21379C20.4492 5.25664 20.5103 5.27913 20.625 5.33268C20.7353 5.38409 20.7632 5.39908 20.8575 5.44728C21.971 6.0235 22.0846 6.19058 22.9269 6.90067L23.5763 7.59042C23.8881 7.99313 24.6812 9.04167 24.7176 9.47544L21.5509 11.4194C21.2776 11.5961 21.0236 11.7428 20.7493 11.9078L18.3616 13.3911C18.217 13.4768 18.1002 13.5593 17.9651 13.6396L16.766 14.3765C16.6256 14.4675 16.512 14.5296 16.363 14.6185L15.1724 15.3629C15.017 15.4572 12.1375 17.2661 11.9618 17.3133C11.6928 16.8045 11.4484 16.405 11.2427 15.7999C11.1344 15.4818 11.0466 15.2462 10.9823 14.9195C10.9426 14.7192 10.8976 14.6389 10.8772 14.4793C10.7422 13.4083 10.6983 12.9949 10.8505 11.8863C11.0873 10.1534 11.8546 8.5672 13.0923 7.33016C13.6357 6.78714 13.6678 6.7368 14.3258 6.28054C14.4512 6.19379 14.5401 6.1231 14.6516 6.05991C15.0513 5.83392 15.6171 5.61543 15.6857 5.35731C15.5036 5.3616 15.2088 5.42586 14.9977 5.46335C14.5251 5.54796 13.5467 5.89926 13.1095 6.10597C12.2565 6.50975 10.9823 7.24448 10.5311 8.09273C10.4679 8.21162 10.4325 8.27909 10.38 8.38834C10.2846 8.58648 10.1925 8.7375 10.1078 8.9592C9.84846 9.63717 9.5484 10.4897 9.44338 11.2223L9.33192 12.4004L9.33085 12.4026ZM25.3134 36.3123V65.1821C25.3134 65.3342 25.3595 65.4798 25.5117 65.4798H31.17C31.4969 65.4798 31.3683 64.4334 31.3683 64.0907V53.029H42.2873C42.6302 53.029 43.6772 53.1565 43.6772 52.8309V48.1184C43.6772 47.8399 43.12 47.9202 42.8338 47.9202C39.1795 47.9224 35.3366 47.8731 31.7133 47.9234C31.1721 47.9309 31.3693 48.0123 31.3693 46.7796C31.3693 45.4515 31.4261 42.535 31.3661 41.4694C31.3372 40.9435 31.3179 41.0752 33.0068 41.0752H44.7199C45.0168 41.0752 45.6137 41.1813 45.6137 40.8771V36.3134C45.6137 36.1613 45.5676 36.0157 45.4154 36.0157H25.5128C25.3606 36.0157 25.3145 36.1613 25.3145 36.3134L25.3134 36.3123ZM119.666 36.2127V65.1821C119.666 65.3159 119.689 65.3192 119.715 65.4305C119.826 65.4563 119.83 65.4798 119.964 65.4798H141.802C141.919 65.4798 142 65.3973 142 65.2817V60.5691C142 60.3324 141.598 60.4202 141.157 60.4202H126.614C126.447 60.4202 126.282 60.4203 126.115 60.4235C125.904 60.4267 125.721 60.4727 125.721 60.2724V52.7324C125.721 52.4903 126.233 52.5835 126.465 52.5835L140.02 52.5878C140.205 52.5888 140.363 52.6263 140.363 52.4346V47.7221C140.363 47.6064 140.28 47.5239 140.164 47.5239H125.721V41.2241C125.721 41.0078 125.986 41.0709 126.216 41.0742C129.378 41.117 132.822 41.0752 135.994 41.0752C137.68 41.0752 139.551 41.1534 141.212 41.0817C141.569 41.0667 141.455 40.9606 141.455 40.0331V36.0649C141.343 36.0392 141.341 36.0157 141.207 36.0157H119.865C119.748 36.0157 119.667 36.0981 119.667 36.2138L119.666 36.2127ZM84.327 50.5978L84.3763 51.9869C84.4385 53.225 84.6989 54.4085 85.0386 55.591C85.0793 55.7334 85.0922 55.7977 85.1426 55.9337L85.6355 57.326C85.9249 58.095 86.2817 58.8705 86.7061 59.5795C87.1123 60.2564 87.5463 60.8958 88.0864 61.4731C88.1925 61.5866 88.2032 61.6327 88.3093 61.7473C88.7583 62.2324 89.2641 62.6983 89.7935 63.0914C89.9789 63.2285 90.1515 63.3677 90.3326 63.4941C90.7087 63.7576 91.0581 63.9975 91.4835 64.2288C92.1029 64.563 92.8134 64.8115 93.48 65.061L94.5431 65.3877C94.7253 65.4263 94.7327 65.468 94.9181 65.5087L96.5074 65.8054C97.4987 65.9404 98.4599 66.025 99.4641 66.025L101.493 65.9189C101.969 65.8697 102.862 65.7497 103.326 65.619C103.493 65.5719 103.508 65.5569 103.73 65.5269C104.2 65.4637 105.589 64.9636 106.004 64.8233L106.399 64.6723C107.059 64.4227 107.758 64.0586 108.405 63.7501C108.551 63.6805 108.611 63.6376 108.762 63.5616C108.915 63.4856 108.973 63.4545 109.114 63.3688L109.617 63.0775C110.22 62.7198 110.825 62.2892 111.377 61.8597C111.576 61.7044 111.873 61.563 111.873 61.2642V49.756C111.873 49.5814 111.652 49.5578 111.476 49.5578H99.3162C99.0847 49.5578 98.969 49.6735 98.969 49.9048V54.3196C98.969 54.5017 99.0461 54.5595 99.1179 54.6667H105.818C105.892 54.9805 105.816 57.1654 105.817 57.793C105.818 58.5749 105.897 58.4089 105.146 58.8565L100.99 60.5563C100.068 60.8305 98.52 60.9343 97.6069 60.7394C96.5535 60.5145 96.1688 60.4588 95.1293 59.9415C94.5109 59.6341 94.0019 59.2678 93.5196 58.8223L92.9667 58.2835C92.8724 58.1721 92.8006 58.1057 92.7127 57.9911C92.2326 57.3635 91.8264 56.6416 91.5371 55.893C91.2745 55.2129 91.0206 54.5103 90.9241 53.7777C90.9016 53.6117 90.8716 53.4553 90.8373 53.3193C90.7355 52.908 90.6294 51.822 90.6294 51.3443C90.6294 50.3911 90.5855 49.3393 90.7194 48.4086L91.2113 45.9741C91.2467 45.8735 91.2585 45.8788 91.3003 45.7653C91.6582 44.7714 92.179 43.8674 92.9249 43.123C93.4693 42.579 93.9965 42.0852 94.6835 41.705L95.7765 41.2102C95.9201 41.1577 96.0573 41.1213 96.1891 41.0763C97.0754 40.7732 98.0709 40.68 99.0676 40.68C99.7652 40.68 100.409 40.7432 101.07 40.9103L102.109 41.2605C102.16 41.2819 102.166 41.2809 102.215 41.3034L102.707 41.5561C103.636 42.0477 104.489 42.9131 104.973 43.8546L105.492 45.022C105.615 45.3776 105.721 45.3422 106.29 45.2223L111.358 44.2851C111.486 44.2498 111.604 44.2541 111.529 43.9574C111.143 42.4365 110.352 40.5793 109.255 39.3776L109.048 39.1388C109.009 39.0927 109.002 39.082 108.956 39.0328C108.107 38.1106 107.044 37.4037 105.929 36.8489L105.27 36.5651C105.152 36.5212 105.119 36.5051 105.022 36.4666C104.933 36.4312 104.906 36.4302 104.799 36.3916L103.505 35.9975C103.282 35.9493 103.202 35.9011 102.986 35.8711C102.741 35.8379 102.674 35.81 102.454 35.7586C101.977 35.6462 101.174 35.6205 100.662 35.5648C99.3087 35.418 97.8952 35.4544 96.5428 35.629L94.9771 35.9C94.1262 36.1153 93.3589 36.3509 92.5498 36.699C91.1245 37.3127 89.7764 38.1824 88.6801 39.2802L87.8067 40.242C87.7295 40.3373 87.6684 40.3801 87.5923 40.4744C87.512 40.5751 87.468 40.6597 87.3887 40.7668C86.8486 41.4908 86.4071 42.2384 85.9913 43.0406C85.7716 43.4636 85.6248 43.8728 85.433 44.3183C85.3794 44.4426 85.359 44.5336 85.3162 44.6482L84.7085 46.7699C84.6775 46.9006 84.6839 47.0441 84.6496 47.2069L84.4203 48.8124C84.3763 49.395 84.3238 49.9477 84.3238 50.601L84.327 50.5978ZM70.6281 46.2826C70.5435 46.2601 70.5253 46.2687 70.4342 46.0802L70.013 45.1623C69.8394 44.8217 69.549 44.4779 69.31 44.0784L67.6125 40.7646L66.9352 38.5155C66.7884 37.815 66.6587 36.5501 66.6587 35.8657C66.6587 35.1899 66.8077 34.6919 66.8077 34.031L68.413 33.4034C69.0099 33.156 68.801 33.1881 69.2896 33.1881C70.1802 33.1881 70.1909 33.4816 70.7567 33.955C71.2058 34.3299 71.7105 34.83 72.2185 35.222L73.1122 36.0157C70.4267 36.0157 70.6281 35.7747 70.6303 36.7097V46.2837L70.6281 46.2826ZM72.9118 25.0515C72.0331 25.0515 71.7673 25.0012 70.9625 24.7173L69.1814 24.0169C69.1321 23.9933 69.0442 23.9398 68.9896 23.9108C69.04 23.7223 69.0528 23.8327 69.1096 23.5852L69.549 21.6927C69.6626 21.1069 70.1373 20.7877 70.5167 20.3775C70.6217 20.264 70.6335 20.2168 70.7385 20.1033C71.0289 19.7895 71.733 18.8684 72.1124 19.4511C72.3331 19.7884 72.2967 20.9162 72.3653 20.9848C72.4982 21.049 72.5764 21.0148 72.7275 20.9526C72.87 20.8937 72.9911 20.8488 73.109 20.7866L73.2987 18.4464C73.3801 17.7374 73.2312 17.6271 72.989 17.0873L72.899 16.8795C72.5614 16.1876 72.2613 15.5482 71.6269 15.0748C71.3536 14.8713 71.1168 14.7321 70.8007 14.6121C70.5285 14.5082 70.641 14.5232 70.2949 14.4729C69.4868 14.3561 69.0667 14.354 68.2459 14.686C67.8322 14.8531 67.425 15.0791 67.067 15.3436C66.2001 15.9884 65.5003 16.8452 65.0181 17.8102C64.7191 18.4089 64.8176 18.6938 64.8198 19.3986C64.823 20.4578 64.7651 20.0637 65.7746 21.0726C66.8549 22.1522 66.6062 21.6574 66.6062 23.566C66.6062 23.8048 66.4476 23.8498 66.2955 23.9997L64.3815 25.8569C63.6978 26.4535 63.207 27.1764 62.6208 27.8662C62.4493 28.0675 62.415 28.0654 62.3014 28.3406C62.1257 28.7658 61.8288 29.6098 61.7945 30.0661C61.6788 31.5666 61.9403 31.8611 62.176 33.1539L62.6218 35.4866C62.7783 36.4666 63.0001 37.4305 63.1255 38.4062L63.4277 40.3362C63.4459 40.5761 63.4384 40.619 63.4835 40.8257C63.6924 41.7896 63.7492 42.7396 63.9485 43.6843C63.986 43.8599 63.985 44.0741 64.0128 44.2155L64.9087 48.9259C65.4092 51.0273 65.2613 50.4596 66.1786 52.1711L67.1956 53.933C67.2792 54.0712 67.3285 54.1858 67.4057 54.3186L69.0335 57.702C69.1353 57.9451 69.5876 58.7066 69.5876 58.9347C69.5876 59.0954 69.0239 59.6362 68.8931 59.7294C68.8245 59.7787 68.7613 59.8183 68.6874 59.8708C68.5609 59.9608 68.5802 59.9436 68.4398 60.0197C68.0347 60.2392 67.2932 60.583 66.8452 60.658L66.2054 60.7619C65.4874 60.854 64.5197 60.8915 63.8103 60.7405C63.6142 60.6987 63.6474 60.6923 63.4331 60.6709C62.6797 60.597 61.4044 59.949 60.8901 59.4424C60.8343 59.3867 60.8161 59.3728 60.7615 59.3224L60.6361 59.2003C60.3092 58.849 60.0917 58.5352 59.8763 58.0747C59.3908 57.0347 59.4283 56.0151 59.3062 54.8744C59.184 53.7413 59.2644 52.365 59.2644 51.1451V37.0074C59.2644 36.6262 59.2408 36.3723 59.2151 36.0649C58.66 35.9353 54.3316 36.0157 53.4078 36.0157C53.2921 36.0157 53.2095 36.0981 53.2095 36.2138V51.641C53.2095 53.0922 53.2524 56.5067 53.5214 57.8273C53.6103 58.2632 53.62 58.7805 53.7604 59.225C53.8204 59.4135 53.8793 59.6566 53.9458 59.8333C54.3208 60.8358 54.7934 61.6252 55.4504 62.4466C55.58 62.6084 55.6529 62.738 55.8029 62.8879C56.9742 64.0693 58.4735 65.0546 60.0906 65.497L61.1194 65.709C61.3648 65.7711 61.5845 65.7968 61.847 65.8258C62.0967 65.8525 62.3014 65.9136 62.5415 65.9254C62.8212 65.9393 63.0902 65.9039 63.3645 65.9457C64.4383 66.1085 66.9331 66.0389 67.9308 65.8536C68.8578 65.6822 69.6947 65.5816 70.5413 65.1896L71.314 64.8704C71.6066 64.7376 72.1606 64.3981 72.4189 64.3381L73.5012 66.1824C73.6791 66.4791 75.7956 69.8175 76.25 68.8118C76.4761 68.3106 76.175 67.518 76.0164 67.0425L75.6585 65.9618C75.5931 65.7668 75.5352 65.5976 75.4709 65.4059C75.338 65.0064 75.2362 64.6605 75.0991 64.2888C74.9876 63.9868 74.5804 62.8911 74.5761 62.6362C74.5718 62.4231 74.9758 61.9765 75.1055 61.7633L75.5824 60.7523C75.6702 60.5509 75.7035 60.4181 75.7806 60.206L75.9992 59.3835C76.0228 59.2539 76.0539 59.1746 76.0796 59.0675L76.4847 56.5463C76.519 56.1136 76.4965 55.5567 76.5458 55.1186C76.7344 53.4382 76.6379 48.3133 76.6379 46.4304V37.6501C76.6369 36.4591 76.6283 37.1863 77.1866 36.76C77.3645 36.624 77.6892 36.1217 77.8286 35.9139C78.404 35.9139 78.5819 35.9353 79.0384 35.7833C79.3117 35.6922 79.8143 35.3913 79.8143 35.1203C79.8143 34.981 79.6396 34.875 79.5528 34.7861C79.4275 34.6587 79.4071 34.5912 79.2817 34.4616C79.1167 34.2902 78.7834 34.0096 78.7223 33.7804C79.0545 33.7033 79.8165 33.714 80.2098 33.6797L83.1889 33.4827C84.1888 33.4902 84.0398 33.201 85.0633 32.1803L85.8756 31.4059C86.1788 31.165 86.4596 30.9368 86.7629 30.7055L87.6695 29.975C87.8378 29.8497 87.961 29.7651 88.1153 29.6269L88.9984 28.9222C89.128 28.8108 89.0927 28.8654 89.143 28.6694C89.1859 28.5024 89.1955 28.4874 89.233 28.3631L89.5567 27.0993C89.5867 26.974 89.6178 26.959 89.6596 26.8048C89.6939 26.6784 89.6906 26.5991 89.7271 26.4749C89.801 26.2253 89.7742 26.0604 89.965 25.918C90.0979 25.8183 90.3079 25.7177 90.4644 25.6234C91.3013 25.12 93.4146 23.9355 93.4146 22.9662C93.4146 22.6663 93.2142 22.3921 93.0567 22.2325C92.8788 22.0526 92.5605 21.9144 92.4223 21.7259C92.4662 21.5621 92.7952 21.2354 92.9313 21.0929C93.2989 20.7084 94.2098 19.3804 94.2098 18.8481C94.2098 17.9355 94.2473 17.9591 93.7136 17.1612C93.8379 16.6267 94.6567 15.8545 94.6567 13.7382L94.6074 12.8953C94.0748 12.771 93.211 12.8567 92.6152 12.7496C92.3365 12.6993 92.4416 12.5857 92.5134 12.3929L92.7459 11.5308C92.8638 11.1238 93.046 10.5079 93.1049 10.1041C93.1735 9.62753 93.6043 7.58721 92.7706 7.58721C92.403 7.58721 90.8416 8.03918 90.4376 8.13236C90.3004 7.87424 90.2007 7.53901 90.0829 7.24662C89.9436 6.90282 89.2159 4.90748 88.7004 4.90748C88.1861 4.90748 88.0489 5.25021 87.8838 5.67862C87.8356 5.80393 87.7927 5.9421 87.7563 6.04813L87.5581 6.7925C87.4455 7.44262 87.1798 8.04561 87.0254 8.69037C86.9719 8.911 86.9686 8.88851 86.9076 9.06845L84.1427 16.028L82.158 19.8484C82.0262 20.0669 81.919 20.2436 81.7851 20.4675C81.1807 21.4807 80.5248 22.4264 79.8229 23.3678C79.5475 23.7373 79.2356 24.0619 78.9098 24.3896C78.5808 24.7216 77.7289 25.497 77.2745 24.9572C76.803 24.3982 77.3484 23.7802 77.6528 23.2811L79.5668 20.4321C80.0051 19.8195 80.4037 19.1662 80.8281 18.5182L82.9028 15.0352C83.6476 13.6985 84.3399 12.2869 84.8639 10.8442L85.5594 8.56292C85.5841 8.41297 85.568 8.35728 85.6034 8.21055C85.8156 7.33444 85.8413 6.90496 84.9132 6.55687L84.1566 6.27198C83.7816 6.13595 83.8973 5.99136 83.5801 5.31019C83.2843 4.67613 82.5395 3.02032 81.7508 3.02032C81.5461 3.02032 81.2225 3.22488 81.1539 3.36626C81.0724 3.53441 81.0724 3.9489 81.0531 4.20809L80.8592 6.8921C80.8517 7.17272 80.782 7.4801 80.7359 7.76071C80.6373 8.35407 80.6534 8.88851 80.5409 9.50007C80.5109 9.66287 80.483 9.69929 80.4648 9.86958L80.3255 10.7232C80.2976 10.9074 80.2987 11.0113 80.2687 11.1623L80.1219 11.9581C79.9043 12.7421 79.7875 13.57 79.5861 14.3497C79.5507 14.4879 79.5078 14.5746 79.481 14.6914C79.2764 15.5696 79.0149 16.4264 78.6955 17.2801L78.1693 18.6885C77.7064 19.7809 77.2263 20.9044 76.5597 21.8919C75.9242 22.8323 75.4377 23.5317 74.5911 24.29C74.1581 24.6777 73.528 25.0472 72.9161 25.0472L72.9118 25.0515ZM27.894 7.44155C27.7364 6.85033 26.2501 5.34874 25.696 4.87642C25.5481 4.75111 25.4035 4.65686 25.2427 4.53583C24.4154 3.91035 23.0662 3.23452 22.0235 2.9914C21.8692 2.95498 21.8359 2.96355 21.6955 2.92285C21.0868 2.74613 20.5296 2.67973 19.8545 2.67973C19.6648 2.67973 19.8362 2.66473 19.7055 2.72899C19.8437 2.99033 19.7559 2.82218 20.5092 3.06637L20.7986 3.17347C21.8402 3.55583 22.9054 4.16204 23.737 4.89998C24.4004 5.48798 25.0991 6.17773 25.5588 6.94887C25.7378 7.24983 26.4344 8.18377 26.4547 8.43439C26.2704 8.47723 26.3154 8.51686 26.1075 8.534C26.0882 8.30266 25.9361 8.1013 25.8353 7.9128L25.1302 6.78179C24.7358 6.24306 24.2975 5.80822 23.8121 5.3209C23.1691 4.67613 22.4264 4.2263 21.6259 3.78611L20.9893 3.47979C20.3388 3.20453 19.5748 2.91964 18.8525 2.83717C18.4924 2.7954 18.3863 2.73435 18.0166 2.73007C17.3189 2.72257 16.6899 2.65295 15.9376 2.73542C15.7586 2.7547 15.6632 2.80718 15.436 2.82967C14.7137 2.90143 13.9422 3.16812 13.2767 3.4498C13.2477 3.46265 13.2059 3.48193 13.1727 3.49478C12.5597 3.75076 11.9768 4.05601 11.4506 4.45229C11.323 4.54868 11.232 4.6033 11.1023 4.6997C10.949 4.81323 10.8922 4.87856 10.7486 4.99102C10.0542 5.53403 9.46374 6.20129 8.96328 6.92638C8.43495 7.69217 8.00844 8.50187 7.6998 9.3844L7.49405 10.072C7.40296 10.554 7.27114 10.8838 7.24435 11.4097C7.18541 12.5482 7.08039 12.8492 7.25828 14.0777L7.43939 14.9388C7.77267 16.1491 8.23456 17.2008 8.93434 18.2568C9.05865 18.4443 9.32442 18.6906 9.38122 18.9016C9.24834 19.0826 7.47261 20.1194 7.07074 20.3625L4.73669 21.7988C3.64468 22.4703 2.30512 23.2575 1.24097 23.9601C1.00414 24.1165 0.248623 24.6338 0 24.6541V24.9015C0.206828 24.9765 0.434018 25.5045 0.547613 25.693L4.21587 31.6009C4.30267 31.7347 4.36804 31.8643 4.45699 32.0046C4.55344 32.1578 4.62845 32.2735 4.72383 32.432C6.18342 34.8515 7.7148 37.2238 9.17225 39.6433L12.6969 45.3465C12.7708 45.4793 12.7526 45.4397 12.8319 45.5597C13.4739 46.5364 14.0483 47.5443 14.6623 48.5414L20.2724 57.6174C20.3517 57.7373 20.3335 57.6966 20.4074 57.8305C20.5607 58.109 20.7718 58.3992 20.9422 58.6852L21.9774 60.3785C22.0642 60.5156 22.3685 61.186 22.5647 61.0864C22.6804 61.0275 22.5829 60.7437 22.5818 60.5199C22.5389 51.144 22.5829 41.7682 22.5829 32.3924C22.6943 32.3667 22.6975 32.3431 22.8315 32.3431H59.7091C59.9706 32.3431 59.7573 32.4127 60.0563 32.3431C60.0488 32.0132 59.5312 31.392 59.3458 31.0696C59.2772 30.9507 59.2783 30.9315 59.199 30.8201C59.0693 30.638 58.9932 30.4881 58.8754 30.3006L57.628 28.2732C57.4211 27.9261 57.2175 27.623 57.0021 27.2621L54.5202 23.2447C54.4055 23.0529 54.3273 22.9426 54.2158 22.7552L53.8858 22.2411C53.665 21.8866 53.486 21.5717 53.2663 21.2225L51.3877 18.1894C51.2752 17.9848 51.1991 17.8959 51.0823 17.701L44.5495 7.11595C44.3341 6.75608 44.1316 6.44013 43.9291 6.09954C42.9206 4.40516 41.8168 2.73328 40.8031 1.0389L40.4923 0.555867C40.3958 0.404851 40.2212 0.198141 40.204 0H39.9554C39.8847 0.195999 39.4388 0.385572 39.2577 0.493747L37.7499 1.41805C37.5988 1.50802 37.5217 1.5605 37.3845 1.64725C37.3148 1.69116 37.2763 1.70937 37.1991 1.75971L32.8804 4.43729C32.7271 4.5294 32.6135 4.57867 32.4753 4.67721C31.3157 5.50404 29.9119 6.20771 28.7031 7.00885C28.6709 7.03027 28.6591 7.03884 28.613 7.06668C28.3794 7.20806 28.1801 7.41691 27.895 7.44047L27.894 7.44155Z" fill="#141416" fill-opacity="0.7"/>
</svg>
