<svg width="262" height="78" viewBox="0 0 262 78" fill="none" xmlns="http://www.w3.org/2000/svg">
<path d="M60 42.0191V13.0986H78.9208V17.1747H64.6034V25.8702H77.3603V29.9462H64.6034V42.0191H60Z" fill="white"/>
<path d="M86.9024 42.4849C85.472 42.4849 84.2106 42.239 83.1182 41.7473C82.0519 41.2297 81.2197 40.531 80.6215 39.6511C80.0233 38.7453 79.7242 37.6842 79.7242 36.4679C79.7242 35.3292 79.9713 34.3069 80.4654 33.4012C80.9856 32.4954 81.7788 31.7319 82.8451 31.1108C83.9115 30.4897 85.2509 30.0498 86.8634 29.791L94.1976 28.5876V32.0425L87.7216 33.1682C86.5513 33.3753 85.693 33.7505 85.1469 34.294C84.6007 34.8116 84.3276 35.4845 84.3276 36.3126C84.3276 37.1149 84.6267 37.7748 85.2249 38.2924C85.8491 38.7841 86.6423 39.03 87.6046 39.03C88.801 39.03 89.8413 38.7712 90.7256 38.2536C91.6358 37.736 92.3381 37.0502 92.8322 36.1962C93.3264 35.3163 93.5734 34.3458 93.5734 33.2847V27.8888C93.5734 26.8536 93.1833 26.0125 92.4031 25.3656C91.6488 24.6927 90.6345 24.3563 89.3601 24.3563C88.1898 24.3563 87.1625 24.6668 86.2782 25.2879C85.4199 25.8832 84.7827 26.6595 84.3666 27.6171L80.6995 25.7926C81.0896 24.7574 81.7268 23.8516 82.6111 23.0752C83.4953 22.2729 84.5227 21.6518 85.693 21.2119C86.8894 20.7719 88.1508 20.552 89.4772 20.552C91.1417 20.552 92.6111 20.8625 93.8855 21.4836C95.1859 22.1047 96.1872 22.9717 96.8894 24.0845C97.6177 25.1715 97.9818 26.4396 97.9818 27.8888V42.0191H93.7685V38.2148L94.6658 38.3312C94.1716 39.1852 93.5344 39.9228 92.7542 40.5439C92 41.165 91.1287 41.6438 90.1404 41.9802C89.1781 42.3167 88.0988 42.4849 86.9024 42.4849Z" fill="white"/>
<path d="M102.356 42.0191V21.0178H106.569V25.2491L106.179 24.628C106.647 23.2564 107.402 22.273 108.442 21.6777C109.482 21.0566 110.731 20.7461 112.187 20.7461H113.474V24.7445H111.641C110.184 24.7445 109.001 25.1973 108.091 26.1031C107.206 26.983 106.764 28.2511 106.764 29.9074V42.0191H102.356Z" fill="white"/>
<path d="M115.71 42.0191V21.0178H119.923V25.5597L119.377 24.8609C119.819 23.4375 120.625 22.3635 121.796 21.6389C122.966 20.9143 124.306 20.552 125.814 20.552C127.505 20.552 129 21.0049 130.3 21.9106C131.627 22.7905 132.511 23.9681 132.953 25.4432L131.705 25.5597C132.329 23.8775 133.278 22.6223 134.553 21.7942C135.853 20.966 137.336 20.552 139 20.552C140.457 20.552 141.77 20.8884 142.94 21.5613C144.137 22.2341 145.086 23.1658 145.788 24.3563C146.49 25.5467 146.841 26.9054 146.841 28.4323V42.0191H142.433V29.6357C142.433 28.5746 142.238 27.6818 141.848 26.9572C141.484 26.2066 140.964 25.6373 140.287 25.2491C139.637 24.835 138.87 24.628 137.986 24.628C137.102 24.628 136.321 24.835 135.645 25.2491C134.969 25.6373 134.436 26.2066 134.046 26.9572C133.655 27.7077 133.46 28.6005 133.46 29.6357V42.0191H129.091V29.6357C129.091 28.5746 128.896 27.6818 128.506 26.9572C128.142 26.2066 127.622 25.6373 126.945 25.2491C126.295 24.835 125.515 24.628 124.605 24.628C123.72 24.628 122.94 24.835 122.264 25.2491C121.588 25.6373 121.055 26.2066 120.664 26.9572C120.3 27.7077 120.118 28.6005 120.118 29.6357V42.0191H115.71Z" fill="white"/>
<path d="M158.582 42.4849C156.423 42.4849 154.525 41.9544 152.886 40.8933C151.274 39.8322 150.142 38.4089 149.492 36.6232L152.886 35.0316C153.458 36.222 154.239 37.1666 155.227 37.8654C156.241 38.5641 157.36 38.9135 158.582 38.9135C159.622 38.9135 160.468 38.6806 161.118 38.2148C161.768 37.7489 162.093 37.1149 162.093 36.3126C162.093 35.795 161.95 35.381 161.664 35.0704C161.378 34.734 161.014 34.4622 160.572 34.2552C160.155 34.0482 159.726 33.8929 159.284 33.7894L155.968 32.8577C154.148 32.3401 152.782 31.5637 151.872 30.5285C150.988 29.4675 150.545 28.2382 150.545 26.8407C150.545 25.5726 150.871 24.4727 151.521 23.541C152.171 22.5835 153.068 21.8459 154.213 21.3283C155.357 20.8108 156.644 20.552 158.075 20.552C159.999 20.552 161.716 21.0307 163.224 21.9883C164.733 22.9199 165.799 24.2269 166.423 25.909L163.029 27.5006C162.613 26.4913 161.95 25.6891 161.04 25.0938C160.155 24.4986 159.154 24.201 158.036 24.201C157.073 24.201 156.306 24.4339 155.734 24.8997C155.162 25.3397 154.876 25.922 154.876 26.6466C154.876 27.1383 155.006 27.5524 155.266 27.8888C155.526 28.1994 155.864 28.4582 156.28 28.6652C156.696 28.8464 157.126 29.0016 157.568 29.131L161.001 30.1403C162.743 30.6321 164.083 31.4084 165.019 32.4695C165.955 33.5047 166.423 34.7469 166.423 36.1962C166.423 37.4384 166.085 38.5383 165.409 39.4958C164.759 40.4275 163.849 41.165 162.678 41.7085C161.508 42.2261 160.142 42.4849 158.582 42.4849Z" fill="white"/>
<path d="M179.091 42.252C176.881 42.252 175.164 41.6309 173.942 40.3886C172.719 39.1464 172.108 37.3996 172.108 35.148V24.9774H168.402V21.0178H168.987C169.975 21.0178 170.743 20.7331 171.289 20.1638C171.835 19.5944 172.108 18.818 172.108 17.8346V16.2042H176.516V21.0178H181.315V24.9774H176.516V34.9539C176.516 35.6786 176.634 36.2997 176.868 36.8173C177.102 37.309 177.479 37.6972 177.999 37.9818C178.519 38.2406 179.195 38.37 180.028 38.37C180.236 38.37 180.47 38.3571 180.73 38.3312C180.99 38.3053 181.237 38.2795 181.471 38.2536V42.0191C181.107 42.0708 180.704 42.1226 180.262 42.1743C179.819 42.2261 179.429 42.252 179.091 42.252Z" fill="white"/>
<path d="M191.122 42.4849C189.692 42.4849 188.43 42.239 187.338 41.7473C186.272 41.2297 185.439 40.531 184.841 39.6511C184.243 38.7453 183.944 37.6842 183.944 36.4679C183.944 35.3292 184.191 34.3069 184.685 33.4012C185.205 32.4954 185.999 31.7319 187.065 31.1108C188.131 30.4897 189.471 30.0498 191.083 29.791L198.417 28.5876V32.0425L191.941 33.1682C190.771 33.3753 189.913 33.7505 189.367 34.294C188.82 34.8116 188.547 35.4845 188.547 36.3126C188.547 37.1149 188.846 37.7748 189.445 38.2924C190.069 38.7841 190.862 39.03 191.824 39.03C193.021 39.03 194.061 38.7712 194.945 38.2536C195.856 37.736 196.558 37.0502 197.052 36.1962C197.546 35.3163 197.793 34.3458 197.793 33.2847V27.8888C197.793 26.8536 197.403 26.0125 196.623 25.3656C195.869 24.6927 194.854 24.3563 193.58 24.3563C192.41 24.3563 191.382 24.6668 190.498 25.2879C189.64 25.8832 189.003 26.6595 188.586 27.6171L184.919 25.7926C185.309 24.7574 185.947 23.8516 186.831 23.0752C187.715 22.2729 188.742 21.6518 189.913 21.2119C191.109 20.7719 192.371 20.552 193.697 20.552C195.361 20.552 196.831 20.8625 198.105 21.4836C199.406 22.1047 200.407 22.9717 201.109 24.0845C201.837 25.1715 202.202 26.4396 202.202 27.8888V42.0191H197.988V38.2148L198.886 38.3312C198.391 39.1852 197.754 39.9228 196.974 40.5439C196.22 41.165 195.348 41.6438 194.36 41.9802C193.398 42.3167 192.319 42.4849 191.122 42.4849Z" fill="white"/>
<path d="M206.576 42.0191V21.0178H210.789V25.2491L210.399 24.628C210.867 23.2564 211.621 22.273 212.662 21.6777C213.702 21.0566 214.95 20.7461 216.407 20.7461H217.694V24.7445H215.861C214.404 24.7445 213.221 25.1973 212.311 26.1031C211.426 26.983 210.984 28.2511 210.984 29.9074V42.0191H206.576Z" fill="white"/>
<path d="M229.956 42.4849C227.849 42.4849 225.977 42.0061 224.338 41.0486C222.726 40.0652 221.438 38.7453 220.476 37.089C219.54 35.4327 219.071 33.5564 219.071 31.4602C219.071 29.3898 219.54 27.5265 220.476 25.8702C221.412 24.2139 222.7 22.9199 224.338 21.9883C225.977 21.0307 227.849 20.552 229.956 20.552C231.386 20.552 232.726 20.8108 233.974 21.3283C235.222 21.8201 236.302 22.5059 237.212 23.3858C238.148 24.2657 238.838 25.2879 239.28 26.4525L235.417 28.2382C234.975 27.1512 234.26 26.2843 233.272 25.6373C232.31 24.9644 231.204 24.628 229.956 24.628C228.759 24.628 227.68 24.9256 226.718 25.5208C225.782 26.0902 225.04 26.9054 224.494 27.9665C223.948 29.0016 223.675 30.1792 223.675 31.499C223.675 32.8189 223.948 34.0093 224.494 35.0704C225.04 36.1056 225.782 36.9208 226.718 37.516C227.68 38.1112 228.759 38.4089 229.956 38.4089C231.23 38.4089 232.336 38.0854 233.272 37.4384C234.234 36.7655 234.949 35.8727 235.417 34.7598L239.28 36.5844C238.864 37.6972 238.187 38.7065 237.251 39.6123C236.341 40.4922 235.261 41.1909 234.013 41.7085C232.765 42.2261 231.412 42.4849 229.956 42.4849Z" fill="white"/>
<path d="M242.808 42.0191V12.6328H247.216V32.3142L245.5 31.8872L256.072 21.0178H261.573L253.614 29.4416L261.924 42.0191H256.852L249.44 30.8779L252.054 30.5285L245.812 37.1278L247.216 34.2164V42.0191H242.808Z" fill="white"/>
<path d="M111.435 55.4383V53.9394H112.786V55.4383H111.435Z" fill="white"/>
<path d="M115.273 55.4383V53.9394H116.625V55.4383H115.273Z" fill="white"/>
<path d="M119.112 55.4383V53.9394H120.463V55.4383H119.112Z" fill="white"/>
<path d="M123.08 55.4383V50.3765H121.905V49.2005H123.08V48.8776C123.08 48.4087 123.178 48.0167 123.374 47.7016C123.57 47.3787 123.84 47.1327 124.185 46.9636C124.537 46.7945 124.941 46.71 125.395 46.71C125.481 46.71 125.579 46.7176 125.689 46.733C125.799 46.7407 125.889 46.7522 125.959 46.7676V47.8976C125.896 47.8822 125.826 47.8745 125.748 47.8745C125.669 47.8668 125.607 47.863 125.56 47.863C125.207 47.863 124.925 47.9437 124.714 48.1051C124.502 48.2588 124.396 48.5163 124.396 48.8776V49.2005H125.853V50.3765H124.396V55.4383H123.08Z" fill="white"/>
<path d="M129.682 55.5766C129.071 55.5766 128.511 55.4344 128.002 55.15C127.501 54.8656 127.101 54.4774 126.803 53.9855C126.506 53.4935 126.357 52.9362 126.357 52.3136C126.357 51.6833 126.506 51.126 126.803 50.6417C127.101 50.1498 127.501 49.7654 128.002 49.4887C128.503 49.2043 129.063 49.0621 129.682 49.0621C130.309 49.0621 130.869 49.2043 131.363 49.4887C131.864 49.7654 132.26 50.1498 132.55 50.6417C132.847 51.126 132.996 51.6833 132.996 52.3136C132.996 52.9439 132.847 53.505 132.55 53.997C132.252 54.489 131.852 54.8771 131.351 55.1615C130.85 55.4383 130.293 55.5766 129.682 55.5766ZM129.682 54.366C130.058 54.366 130.391 54.2776 130.681 54.1008C130.971 53.924 131.198 53.6818 131.363 53.3744C131.535 53.0592 131.621 52.7056 131.621 52.3136C131.621 51.9216 131.535 51.5718 131.363 51.2644C131.198 50.9569 130.971 50.7148 130.681 50.538C130.391 50.3612 130.058 50.2728 129.682 50.2728C129.314 50.2728 128.981 50.3612 128.683 50.538C128.394 50.7148 128.162 50.9569 127.99 51.2644C127.826 51.5718 127.743 51.9216 127.743 52.3136C127.743 52.7056 127.826 53.0592 127.99 53.3744C128.162 53.6818 128.394 53.924 128.683 54.1008C128.981 54.2776 129.314 54.366 129.682 54.366Z" fill="white"/>
<path d="M134.057 55.4383V49.2005H135.326V50.4573L135.209 50.2728C135.35 49.8654 135.577 49.5733 135.891 49.3965C136.204 49.212 136.58 49.1198 137.019 49.1198H137.406V50.3074H136.854C136.415 50.3074 136.059 50.4419 135.785 50.7109C135.518 50.9723 135.385 51.3489 135.385 51.8409V55.4383H134.057Z" fill="white"/>
<path d="M141.803 55.5766C141.372 55.5766 140.992 55.5036 140.663 55.3576C140.341 55.2038 140.091 54.9963 139.911 54.7349C139.73 54.4659 139.64 54.1507 139.64 53.7895C139.64 53.4512 139.715 53.1476 139.864 52.8786C140.02 52.6095 140.259 52.3828 140.58 52.1983C140.902 52.0138 141.305 51.8831 141.791 51.8063L144 51.4488V52.475L142.049 52.8094C141.697 52.8709 141.438 52.9824 141.274 53.1438C141.109 53.2975 141.027 53.4974 141.027 53.7433C141.027 53.9816 141.117 54.1776 141.297 54.3314C141.485 54.4774 141.724 54.5504 142.014 54.5504C142.374 54.5504 142.688 54.4736 142.954 54.3198C143.228 54.1661 143.44 53.9624 143.589 53.7087C143.738 53.4474 143.812 53.1591 143.812 52.844V51.2413C143.812 50.9338 143.694 50.684 143.459 50.4918C143.232 50.292 142.927 50.1921 142.543 50.1921C142.19 50.1921 141.881 50.2843 141.615 50.4688C141.356 50.6456 141.164 50.8762 141.039 51.1606L139.934 50.6187C140.052 50.3112 140.244 50.0422 140.51 49.8116C140.776 49.5733 141.086 49.3888 141.438 49.2581C141.799 49.1274 142.179 49.0621 142.578 49.0621C143.079 49.0621 143.522 49.1543 143.906 49.3388C144.298 49.5233 144.599 49.7808 144.811 50.1113C145.03 50.4342 145.14 50.8108 145.14 51.2413V55.4383H143.871V54.3083L144.141 54.3429C143.992 54.5966 143.8 54.8156 143.565 55.0001C143.338 55.1846 143.076 55.3268 142.778 55.4267C142.488 55.5267 142.163 55.5766 141.803 55.5766Z" fill="white"/>
<path d="M149.524 57.9749C149.062 57.9749 148.635 57.9019 148.243 57.7558C147.852 57.6098 147.515 57.4061 147.233 57.1447C146.951 56.8911 146.739 56.5913 146.598 56.2454L147.82 55.7496C147.93 56.0417 148.13 56.2838 148.42 56.476C148.717 56.6681 149.082 56.7642 149.513 56.7642C149.849 56.7642 150.151 56.6989 150.417 56.5682C150.684 56.4452 150.895 56.2607 151.052 56.0148C151.209 55.7765 151.287 55.4882 151.287 55.15V53.7433L151.522 54.0085C151.303 54.4082 150.997 54.7119 150.605 54.9194C150.222 55.127 149.787 55.2307 149.301 55.2307C148.714 55.2307 148.185 55.0962 147.715 54.8272C147.245 54.5581 146.873 54.1892 146.598 53.7203C146.332 53.2514 146.199 52.7248 146.199 52.1407C146.199 51.5488 146.332 51.0222 146.598 50.561C146.873 50.0998 147.241 49.7347 147.703 49.4657C148.165 49.1966 148.694 49.0621 149.289 49.0621C149.775 49.0621 150.206 49.1659 150.582 49.3734C150.966 49.5733 151.279 49.8654 151.522 50.2497L151.346 50.5726V49.2005H152.603V55.15C152.603 55.6881 152.47 56.1685 152.204 56.5913C151.945 57.0217 151.585 57.36 151.122 57.6059C150.66 57.8519 150.128 57.9749 149.524 57.9749ZM149.454 54.0201C149.806 54.0201 150.12 53.9394 150.394 53.7779C150.668 53.6088 150.884 53.3859 151.04 53.1092C151.205 52.8248 151.287 52.5058 151.287 52.1522C151.287 51.7986 151.205 51.4796 151.04 51.1952C150.876 50.9108 150.656 50.6879 150.382 50.5264C150.108 50.3573 149.799 50.2728 149.454 50.2728C149.093 50.2728 148.772 50.3573 148.49 50.5264C148.208 50.6879 147.985 50.9108 147.82 51.1952C147.664 51.4719 147.585 51.7909 147.585 52.1522C147.585 52.4981 147.664 52.8132 147.82 53.0977C147.985 53.3821 148.208 53.6088 148.49 53.7779C148.772 53.9394 149.093 54.0201 149.454 54.0201Z" fill="white"/>
<path d="M153.922 55.4383V49.2005H155.192V50.4573L155.074 50.2728C155.215 49.8654 155.442 49.5733 155.756 49.3965C156.069 49.212 156.445 49.1198 156.884 49.1198H157.271V50.3074H156.719C156.28 50.3074 155.924 50.4419 155.65 50.7109C155.383 50.9723 155.25 51.3489 155.25 51.8409V55.4383H153.922Z" fill="white"/>
<path d="M157.945 55.4383V49.2005H159.273V55.4383H157.945ZM157.945 48.3472V46.8483H159.273V48.3472H157.945Z" fill="white"/>
<path d="M163.61 55.5766C162.976 55.5766 162.412 55.4344 161.918 55.15C161.432 54.8579 161.045 54.4659 160.755 53.9739C160.473 53.482 160.332 52.9247 160.332 52.3021C160.332 51.6871 160.473 51.1337 160.755 50.6417C161.037 50.1498 161.424 49.7654 161.918 49.4887C162.412 49.2043 162.976 49.0621 163.61 49.0621C164.041 49.0621 164.444 49.139 164.82 49.2927C165.196 49.4388 165.522 49.6425 165.796 49.9038C166.078 50.1652 166.285 50.4688 166.419 50.8147L165.255 51.3451C165.122 51.0222 164.907 50.7647 164.609 50.5726C164.319 50.3727 163.986 50.2728 163.61 50.2728C163.25 50.2728 162.925 50.3612 162.635 50.538C162.353 50.7071 162.13 50.9492 161.965 51.2644C161.8 51.5718 161.718 51.9216 161.718 52.3136C161.718 52.7056 161.8 53.0592 161.965 53.3744C162.13 53.6818 162.353 53.924 162.635 54.1008C162.925 54.2776 163.25 54.366 163.61 54.366C163.994 54.366 164.327 54.2699 164.609 54.0777C164.899 53.8779 165.114 53.6127 165.255 53.2821L166.419 53.824C166.293 54.1546 166.09 54.4544 165.808 54.7234C165.533 54.9847 165.208 55.1923 164.832 55.346C164.456 55.4998 164.049 55.5766 163.61 55.5766Z" fill="white"/>
<path d="M169.749 55.5766C169.271 55.5766 168.852 55.4729 168.492 55.2653C168.132 55.0501 167.85 54.7541 167.646 54.3775C167.45 53.9932 167.352 53.5512 167.352 53.0515V49.2005H168.68V52.9362C168.68 53.2206 168.739 53.4705 168.856 53.6857C168.974 53.9009 169.138 54.07 169.35 54.193C169.561 54.3083 169.804 54.366 170.078 54.366C170.36 54.366 170.607 54.3045 170.819 54.1815C171.03 54.0585 171.195 53.8855 171.312 53.6626C171.438 53.4397 171.5 53.1784 171.5 52.8786V49.2005H172.816V55.4383H171.559V54.2161L171.7 54.3775C171.551 54.7618 171.304 55.0578 170.96 55.2653C170.615 55.4729 170.212 55.5766 169.749 55.5766Z" fill="white"/>
<path d="M174.132 55.4383V46.71H175.46V55.4383H174.132Z" fill="white"/>
<path d="M179.527 55.5074C178.861 55.5074 178.344 55.323 177.976 54.954C177.607 54.585 177.423 54.0662 177.423 53.3974V50.3765H176.307V49.2005H176.483C176.781 49.2005 177.012 49.1159 177.177 48.9468C177.341 48.7777 177.423 48.5471 177.423 48.255V47.7707H178.751V49.2005H180.197V50.3765H178.751V53.3398C178.751 53.555 178.786 53.7395 178.857 53.8932C178.927 54.0393 179.041 54.1546 179.198 54.2391C179.354 54.316 179.558 54.3544 179.809 54.3544C179.871 54.3544 179.942 54.3506 180.02 54.3429C180.099 54.3352 180.173 54.3275 180.244 54.3198V55.4383C180.134 55.4536 180.012 55.469 179.879 55.4844C179.746 55.4998 179.629 55.5074 179.527 55.5074Z" fill="white"/>
<path d="M183.572 55.5766C183.094 55.5766 182.675 55.4729 182.315 55.2653C181.955 55.0501 181.673 54.7541 181.469 54.3775C181.273 53.9932 181.175 53.5512 181.175 53.0515V49.2005H182.503V52.9362C182.503 53.2206 182.562 53.4705 182.679 53.6857C182.797 53.9009 182.961 54.07 183.173 54.193C183.384 54.3083 183.627 54.366 183.901 54.366C184.183 54.366 184.43 54.3045 184.642 54.1815C184.853 54.0585 185.018 53.8855 185.135 53.6626C185.26 53.4397 185.323 53.1784 185.323 52.8786V49.2005H186.639V55.4383H185.382V54.2161L185.523 54.3775C185.374 54.7618 185.127 55.0578 184.783 55.2653C184.438 55.4729 184.034 55.5766 183.572 55.5766Z" fill="white"/>
<path d="M187.955 55.4383V49.2005H189.224V50.4573L189.106 50.2728C189.247 49.8654 189.474 49.5733 189.788 49.3965C190.101 49.212 190.477 49.1198 190.916 49.1198H191.304V50.3074H190.751C190.313 50.3074 189.956 50.4419 189.682 50.7109C189.416 50.9723 189.282 51.3489 189.282 51.8409V55.4383H187.955Z" fill="white"/>
<path d="M193.881 55.5766C193.45 55.5766 193.07 55.5036 192.741 55.3576C192.42 55.2038 192.169 54.9963 191.989 54.7349C191.809 54.4659 191.718 54.1507 191.718 53.7895C191.718 53.4512 191.793 53.1476 191.942 52.8786C192.098 52.6095 192.337 52.3828 192.659 52.1983C192.98 52.0138 193.383 51.8831 193.869 51.8063L196.078 51.4488V52.475L194.127 52.8094C193.775 52.8709 193.516 52.9824 193.352 53.1438C193.187 53.2975 193.105 53.4974 193.105 53.7433C193.105 53.9816 193.195 54.1776 193.375 54.3314C193.563 54.4774 193.802 54.5504 194.092 54.5504C194.453 54.5504 194.766 54.4736 195.032 54.3198C195.306 54.1661 195.518 53.9624 195.667 53.7087C195.816 53.4474 195.89 53.1591 195.89 52.844V51.2413C195.89 50.9338 195.773 50.684 195.538 50.4918C195.31 50.292 195.005 50.1921 194.621 50.1921C194.268 50.1921 193.959 50.2843 193.693 50.4688C193.434 50.6456 193.242 50.8762 193.117 51.1606L192.012 50.6187C192.13 50.3112 192.322 50.0422 192.588 49.8116C192.854 49.5733 193.164 49.3888 193.516 49.2581C193.877 49.1274 194.257 49.0621 194.656 49.0621C195.158 49.0621 195.6 49.1543 195.984 49.3388C196.376 49.5233 196.677 49.7808 196.889 50.1113C197.108 50.4342 197.218 50.8108 197.218 51.2413V55.4383H195.949V54.3083L196.219 54.3429C196.07 54.5966 195.878 54.8156 195.643 55.0001C195.416 55.1846 195.154 55.3268 194.856 55.4267C194.566 55.5267 194.241 55.5766 193.881 55.5766Z" fill="white"/>
<path d="M198.535 55.4383V46.71H199.863V55.4383H198.535Z" fill="white"/>
<path d="M205.985 55.5766C205.35 55.5766 204.786 55.4344 204.293 55.15C203.807 54.8579 203.427 54.4659 203.153 53.9739C202.879 53.4743 202.741 52.917 202.741 52.3021C202.741 51.6718 202.879 51.1145 203.153 50.6302C203.435 50.1459 203.811 49.7654 204.281 49.4887C204.751 49.2043 205.284 49.0621 205.879 49.0621C206.357 49.0621 206.784 49.1428 207.16 49.3042C207.536 49.4657 207.853 49.6886 208.112 49.973C208.37 50.2497 208.566 50.5687 208.699 50.93C208.84 51.2913 208.911 51.6756 208.911 52.083C208.911 52.1829 208.907 52.2867 208.899 52.3943C208.891 52.5019 208.875 52.6019 208.852 52.6941H203.787V51.6564H208.1L207.465 52.1291C207.544 51.7525 207.516 51.4181 207.383 51.126C207.258 50.8262 207.062 50.5918 206.795 50.4227C206.537 50.2459 206.231 50.1575 205.879 50.1575C205.526 50.1575 205.213 50.2459 204.939 50.4227C204.665 50.5918 204.453 50.8377 204.304 51.1606C204.155 51.4757 204.097 51.8601 204.128 52.3136C204.089 52.7364 204.148 53.1053 204.304 53.4205C204.469 53.7357 204.696 53.9816 204.986 54.1584C205.284 54.3352 205.62 54.4236 205.996 54.4236C206.38 54.4236 206.705 54.3391 206.972 54.17C207.246 54.0008 207.461 53.7818 207.618 53.5127L208.699 54.0316C208.574 54.3237 208.378 54.5889 208.112 54.8272C207.853 55.0578 207.54 55.2423 207.172 55.3806C206.811 55.5113 206.416 55.5766 205.985 55.5766Z" fill="white"/>
<path d="M209.222 55.4383L211.443 52.3136L209.222 49.2005H210.785L212.606 51.8063H211.854L213.676 49.2005H215.239L213.006 52.3136L215.227 55.4383H213.664L211.866 52.8209H212.595L210.785 55.4383H209.222Z" fill="white"/>
<path d="M218.701 55.5766C218.066 55.5766 217.502 55.4344 217.009 55.15C216.523 54.8579 216.135 54.4659 215.845 53.9739C215.563 53.482 215.422 52.9247 215.422 52.3021C215.422 51.6871 215.563 51.1337 215.845 50.6417C216.127 50.1498 216.515 49.7654 217.009 49.4887C217.502 49.2043 218.066 49.0621 218.701 49.0621C219.132 49.0621 219.535 49.139 219.911 49.2927C220.287 49.4388 220.612 49.6425 220.886 49.9038C221.169 50.1652 221.376 50.4688 221.509 50.8147L220.346 51.3451C220.213 51.0222 219.997 50.7647 219.7 50.5726C219.41 50.3727 219.077 50.2728 218.701 50.2728C218.34 50.2728 218.015 50.3612 217.725 50.538C217.443 50.7071 217.22 50.9492 217.056 51.2644C216.891 51.5718 216.809 51.9216 216.809 52.3136C216.809 52.7056 216.891 53.0592 217.056 53.3744C217.22 53.6818 217.443 53.924 217.725 54.1008C218.015 54.2776 218.34 54.366 218.701 54.366C219.085 54.366 219.418 54.2699 219.7 54.0777C219.989 53.8779 220.205 53.6127 220.346 53.2821L221.509 53.824C221.384 54.1546 221.18 54.4544 220.898 54.7234C220.624 54.9847 220.299 55.1923 219.923 55.346C219.547 55.4998 219.14 55.5766 218.701 55.5766Z" fill="white"/>
<path d="M225.557 55.5766C224.922 55.5766 224.358 55.4344 223.865 55.15C223.379 54.8579 222.999 54.4659 222.725 53.9739C222.451 53.4743 222.314 52.917 222.314 52.3021C222.314 51.6718 222.451 51.1145 222.725 50.6302C223.007 50.1459 223.383 49.7654 223.853 49.4887C224.323 49.2043 224.856 49.0621 225.451 49.0621C225.929 49.0621 226.356 49.1428 226.732 49.3042C227.108 49.4657 227.425 49.6886 227.684 49.973C227.942 50.2497 228.138 50.5687 228.271 50.93C228.412 51.2913 228.483 51.6756 228.483 52.083C228.483 52.1829 228.479 52.2867 228.471 52.3943C228.463 52.5019 228.448 52.6019 228.424 52.6941H223.359V51.6564H227.672L227.037 52.1291C227.116 51.7525 227.088 51.4181 226.955 51.126C226.83 50.8262 226.634 50.5918 226.368 50.4227C226.109 50.2459 225.804 50.1575 225.451 50.1575C225.099 50.1575 224.785 50.2459 224.511 50.4227C224.237 50.5918 224.025 50.8377 223.876 51.1606C223.728 51.4757 223.669 51.8601 223.7 52.3136C223.661 52.7364 223.72 53.1053 223.876 53.4205C224.041 53.7357 224.268 53.9816 224.558 54.1584C224.856 54.3352 225.193 54.4236 225.569 54.4236C225.952 54.4236 226.278 54.3391 226.544 54.17C226.818 54.0008 227.034 53.7818 227.19 53.5127L228.271 54.0316C228.146 54.3237 227.95 54.5889 227.684 54.8272C227.425 55.0578 227.112 55.2423 226.744 55.3806C226.383 55.5113 225.988 55.5766 225.557 55.5766Z" fill="white"/>
<path d="M229.544 55.4383V46.71H230.872V55.4383H229.544Z" fill="white"/>
<path d="M232.189 55.4383V46.71H233.517V55.4383H232.189Z" fill="white"/>
<path d="M237.819 55.5766C237.185 55.5766 236.621 55.4344 236.127 55.15C235.641 54.8579 235.261 54.4659 234.987 53.9739C234.713 53.4743 234.576 52.917 234.576 52.3021C234.576 51.6718 234.713 51.1145 234.987 50.6302C235.269 50.1459 235.645 49.7654 236.115 49.4887C236.585 49.2043 237.118 49.0621 237.713 49.0621C238.191 49.0621 238.618 49.1428 238.994 49.3042C239.37 49.4657 239.687 49.6886 239.946 49.973C240.205 50.2497 240.4 50.5687 240.534 50.93C240.675 51.2913 240.745 51.6756 240.745 52.083C240.745 52.1829 240.741 52.2867 240.733 52.3943C240.725 52.5019 240.71 52.6019 240.686 52.6941H235.622V51.6564H239.934L239.3 52.1291C239.378 51.7525 239.351 51.4181 239.217 51.126C239.092 50.8262 238.896 50.5918 238.63 50.4227C238.371 50.2459 238.066 50.1575 237.713 50.1575C237.361 50.1575 237.047 50.2459 236.773 50.4227C236.499 50.5918 236.288 50.8377 236.139 51.1606C235.99 51.4757 235.931 51.8601 235.962 52.3136C235.923 52.7364 235.982 53.1053 236.139 53.4205C236.303 53.7357 236.53 53.9816 236.82 54.1584C237.118 54.3352 237.455 54.4236 237.831 54.4236C238.215 54.4236 238.54 54.3391 238.806 54.17C239.08 54.0008 239.296 53.7818 239.452 53.5127L240.534 54.0316C240.408 54.3237 240.212 54.5889 239.946 54.8272C239.687 55.0578 239.374 55.2423 239.006 55.3806C238.646 55.5113 238.25 55.5766 237.819 55.5766Z" fill="white"/>
<path d="M241.806 55.4383V49.2005H243.075V50.4227L242.922 50.2612C243.079 49.8692 243.33 49.5733 243.674 49.3734C244.019 49.1659 244.419 49.0621 244.873 49.0621C245.343 49.0621 245.758 49.162 246.119 49.3619C246.479 49.5617 246.761 49.8385 246.965 50.1921C247.168 50.5457 247.27 50.953 247.27 51.4143V55.4383H245.954V51.7602C245.954 51.445 245.895 51.1798 245.778 50.9646C245.66 50.7417 245.492 50.5726 245.272 50.4573C245.061 50.3343 244.818 50.2728 244.544 50.2728C244.27 50.2728 244.023 50.3343 243.804 50.4573C243.592 50.5726 243.428 50.7417 243.31 50.9646C243.193 51.1875 243.134 51.4527 243.134 51.7602V55.4383H241.806Z" fill="white"/>
<path d="M251.476 55.5766C250.842 55.5766 250.278 55.4344 249.784 55.15C249.298 54.8579 248.911 54.4659 248.621 53.9739C248.339 53.482 248.198 52.9247 248.198 52.3021C248.198 51.6871 248.339 51.1337 248.621 50.6417C248.903 50.1498 249.291 49.7654 249.784 49.4887C250.278 49.2043 250.842 49.0621 251.476 49.0621C251.907 49.0621 252.311 49.139 252.687 49.2927C253.063 49.4388 253.388 49.6425 253.662 49.9038C253.944 50.1652 254.152 50.4688 254.285 50.8147L253.121 51.3451C252.988 51.0222 252.773 50.7647 252.475 50.5726C252.185 50.3727 251.852 50.2728 251.476 50.2728C251.116 50.2728 250.791 50.3612 250.501 50.538C250.219 50.7071 249.996 50.9492 249.831 51.2644C249.667 51.5718 249.584 51.9216 249.584 52.3136C249.584 52.7056 249.667 53.0592 249.831 53.3744C249.996 53.6818 250.219 53.924 250.501 54.1008C250.791 54.2776 251.116 54.366 251.476 54.366C251.86 54.366 252.193 54.2699 252.475 54.0777C252.765 53.8779 252.98 53.6127 253.121 53.2821L254.285 53.824C254.159 54.1546 253.956 54.4544 253.674 54.7234C253.399 54.9847 253.074 55.1923 252.698 55.346C252.322 55.4998 251.915 55.5766 251.476 55.5766Z" fill="white"/>
<path d="M258.332 55.5766C257.698 55.5766 257.134 55.4344 256.64 55.15C256.154 54.8579 255.774 54.4659 255.5 53.9739C255.226 53.4743 255.089 52.917 255.089 52.3021C255.089 51.6718 255.226 51.1145 255.5 50.6302C255.782 50.1459 256.158 49.7654 256.628 49.4887C257.098 49.2043 257.631 49.0621 258.226 49.0621C258.704 49.0621 259.131 49.1428 259.507 49.3042C259.883 49.4657 260.201 49.6886 260.459 49.973C260.718 50.2497 260.914 50.5687 261.047 50.93C261.188 51.2913 261.258 51.6756 261.258 52.083C261.258 52.1829 261.254 52.2867 261.246 52.3943C261.239 52.5019 261.223 52.6019 261.199 52.6941H256.135V51.6564H260.447L259.813 52.1291C259.891 51.7525 259.864 51.4181 259.731 51.126C259.605 50.8262 259.409 50.5918 259.143 50.4227C258.885 50.2459 258.579 50.1575 258.226 50.1575C257.874 50.1575 257.561 50.2459 257.286 50.4227C257.012 50.5918 256.801 50.8377 256.652 51.1606C256.503 51.4757 256.444 51.8601 256.476 52.3136C256.436 52.7364 256.495 53.1053 256.652 53.4205C256.816 53.7357 257.044 53.9816 257.333 54.1584C257.631 54.3352 257.968 54.4236 258.344 54.4236C258.728 54.4236 259.053 54.3391 259.319 54.17C259.594 54.0008 259.809 53.7818 259.966 53.5127L261.047 54.0316C260.921 54.3237 260.726 54.5889 260.459 54.8272C260.201 55.0578 259.887 55.2423 259.519 55.3806C259.159 55.5113 258.763 55.5766 258.332 55.5766Z" fill="white"/>
<path fill-rule="evenodd" clip-rule="evenodd" d="M30.0179 10.7198C30.0119 10.7119 30.0039 10.7434 29.997 10.7546C30.0159 10.6535 29.997 10.7243 30.0299 10.6288C30.0348 10.6142 30.0528 10.5681 30.0587 10.5535C30.0896 10.485 30.1126 10.4547 30.1504 10.4019L30.0179 10.7209V10.7198ZM1.22367 4.99822C1.37115 5.12177 1.62027 5.22959 1.8106 5.3509C2.27197 5.64517 3.0273 6.2955 3.42689 6.7021C5.47265 8.78338 7.15869 12.1226 8.71918 14.7992C10.4002 17.6802 12.0245 20.1333 14.5326 21.8237C14.999 22.137 16.4708 22.8761 17.0916 22.9188C17.0876 21.3688 17.4274 19.5571 17.8469 18.1149C18.1807 16.9692 18.6132 15.9404 19.0835 14.8902C19.2141 14.5993 19.524 14.1332 19.5439 13.8175C19.0188 13.22 16.0174 10.8624 15.4514 10.4828C14.2805 9.69654 13.4654 9.04733 12.2407 8.33972L11.1267 7.68153C11.5173 7.73881 13.1077 8.47675 13.5033 8.68678C15.6298 9.81335 17.0438 10.6782 18.9919 12.1316C19.2958 12.3585 19.7661 12.7921 20.0461 12.9358C20.2285 12.7595 20.7935 11.7239 21.0606 11.3151C22.1607 9.62914 23.3136 8.20494 24.6828 6.71446C24.3469 6.20902 22.9718 5.29811 22.4706 4.97463C21.7202 4.49166 20.8493 4.09517 19.9594 3.72451C15.4006 1.83193 9.2802 1.82968 4.47618 3.47629C3.7896 3.71103 1.6133 4.55905 1.22168 4.99709L1.22367 4.99822ZM29.997 10.7546C29.9641 11.0511 29.8007 11.36 29.695 11.661L28.8789 14.3387C27.1221 20.222 26.2662 27.6924 26.3319 34.0002C26.3469 35.3649 26.2442 35.1829 27.4709 34.664C43.1186 28.0349 35.1258 14.0006 35.7765 3.78404C35.931 1.3557 36.4063 0.798591 36.5329 0C31.0562 1.76117 26.7544 5.22173 23.2438 9.66846L21.7501 11.7374L20.4686 13.8939C19.1942 16.1549 17.5848 20.2591 17.9047 24.1835C18.1598 27.3138 19.6485 30.2757 21.7342 32.0537C22.2294 32.4749 23.1023 33.2454 23.6384 33.5026C23.7122 33.8901 23.5358 35.63 23.5069 36.1961C23.473 36.8498 23.3664 38.2425 23.4411 38.8524L24.8053 38.6592C24.884 38.3167 24.8382 37.1923 24.8442 36.7296C24.9099 32.0616 25.1162 28.391 25.8825 23.741C26.32 21.0801 26.8013 19.3931 27.4908 16.9479C27.7499 16.0269 29.5356 11.1522 29.997 10.7546Z" fill="white"/>
<path fill-rule="evenodd" clip-rule="evenodd" d="M44.983 46.3496L25.6465 60.6524V77.0226L45.1863 62.4952L44.983 46.3496Z" fill="white"/>
<path fill-rule="evenodd" clip-rule="evenodd" d="M48.0343 22.4932L25.6465 39.5345V55.8926L48.2394 38.6269L48.0343 22.4932Z" fill="white"/>
<path fill-rule="evenodd" clip-rule="evenodd" d="M3.2581 46.3496L22.5925 60.6524V77.0226L3.05273 62.4952L3.2581 46.3496Z" fill="white"/>
<path fill-rule="evenodd" clip-rule="evenodd" d="M0.20304 22.4932L22.5929 39.5345V55.8926L0 38.6269L0.20304 22.4932Z" fill="white"/>
</svg>
